<svg xmlns="http://www.w3.org/2000/svg" viewBox="0 0 62.232 91.825" height="347.053" width="235.207"><path d="M26.909 65.221c1.866-5.408 1.436-6.708 3.639-8.163 3.348 1.599 3.493 2.232 7.988 4.66 5.643 3.05 9.3 6.767 9.3 6.767s1.411 11.596 1.967 15.024c.556 3.429.093 7.178.1 8.64-8.042 0-2.69.028-12.816.057-5.594-14.544-6.244-15.912-10.178-26.985z" fill="#333"/><path d="M14.706 90.387c1.555-24.332-3.688-21.603-14.59-21.838C.104 63.616.032 61.22.07 60.795c.037-.426.035-.794-.004-.818-.04-.024-.034-.09.012-.145.054-.065.055-.147.004-.226-.059-2.177.06-4.441-.006-6.3-.128-.14-.082-.276.28-.824.932-1.136 1.934-1.859 2.695-2.73.766-1.671.967-3.4 1.527-4.875.455-1.205.719-2.667 1.153-3.63.156-.343.283-.675.283-.736 0-.322.894-1.056 1.45-.999.647.066 1.388-.399 1.642-.646.696-.326 1.728.033 2.516-.482.72-.515 1.386-.243 2.427-.311.502-.016.925-.53 1.387-.577 1.041-.106 1.359.047 1.855-.09.761-.21 1.39-.27 2.74.334.59.384 1.208.833 1.278.68.07-.155-.406-.912-1.014-1.75-.26-.36-.73-1.059-1.095-1.756 0 0-.524-.828-1.051-1.776-.535-.963-.538-1.048-.794-1.705-.11-.281-.138-.563-.232-.97-.103-.449-.187-.954-.187-1.122 0-.482-.118-.633-.453-.579-.524.086-.947-.237-.916-.699.017-.25 1.438-1.449.996-1.628 2.923-3.57 20.081-5.613 24.892-1.835 1.599 1.923 3.994 6.362 5.673 8.571 2.283 6.238 7.439 15.23 7.439 32.355 0 13.24.114 13.677-2.824 9.24-2.938-4.438-8.465-10.838-20.674-17.088-1.61-2.062-3.767 2.852-5.34 4.382-6.773 6.591-14.994 26.398-15.321 25.88z" fill="#e6e6e6"/><path d="M31.793.001C31.12 0 30.377 0 29.594.003c-5.217.02-12.21.153-12.505.305-.127.066-.394.12-.594.12-.502.002-.374-.134-1.741 1.862-.476.695-1.161 2.376-1.58 3.876l-.442 1.585c-.233.834-.236.887-.256 3.471-.01 1.444-.061 3.006-.113 3.472-.226 1.553-.273 3.357-.157 4.352.118 1.88.314 2.815.666 4.918.013 1.986.3 2.621 1.276 2.814.492.097.546.129.57.33.02.18.102.252.423.37.481.18.615.33.555.63-.086.43.682.653 1.063.308.112-.101.132-.195.305-.151.411.103.562.254.963.472.501.236 1.025.456 1.555.71.397.38 1.418.334 2.264-.102.405-.167.835-.351 1.182-.582.42-.287.38-.424.934-.558.455-.11.466-.05.527-.473.094-.649.258-1.159.468-1.452-.036-.589-.182-.333-.671-.244-1.048-.05-2.4-.004-3.498-.462-.1-.123.048-.304.362-.467.628-.52 1.113-.719 1.612-.72.832.077 1.887-.177 2.445-.213.94.104 1.727-.039 2.5.128.2.046 1.121.104 1.25.129.423.082.033.274-.999.495-.356.143-.765.308-1.074.393-.722.07-1.054-.203-1.16.251-.186.886.172 1.421.725 1.306.333-.07.369.028.29.792-.036.361-.064.77-.061.91.02 1.122-.055 1.46-.36 1.617-.61.316-.908 2.994-.42 3.784.477.771-.074 1.161-1.638 1.161-.538 0-.881.061-.984-.027-.103-.088-.204-.187-.19-.37.02-.412.234-.757.36-1.169.058-.233.167-.55.242-.704.117-.238.12-.293.02-.355a.17.17 0 00-.1-.026c-.51.223-1.141 1.574-1.081 2.61.286.522.45.116 1.03.55.167.148.319.341.215.677-.054.172-.08.992-.592 1.216-.8.35-1.968.832-3.75-.243-.392-.202-2.048-.184-1.292.068.856.132.998.112 1.511.383.88.545 1.18.72 1.61 1.543.282.674.674 1.102.27 1.351-.43.266-.667.745-.845 1.18-.443-.237-.512-.435-.793-.926-.36-.576-.678-1.297-1.212-1.461l-.381-.117c-.204-.063.25.547.366.743.528.85.597 1.774.747 2.262.125.395.157.89.243 1.284.119.542.131.762-.158 1.028-.46.425-1.17.6-1.397.346-.065-.073-.473-.972-.705-1.556-.232-.585-.275-.86-.374-1.058-.554-1.1-.884-1.29-1.075-1.41-.628-.397-.892-.117-.557.225.342.35.646.468.963 1.056.308.87.456 1.15.69 2.002.352.991.31 1.756.314 2.425.023.322.011 1.333-.02 1.59-.03.258-.155.036-.588.33-.489.49-.635.976-.805.976-.134 0-.254-.334-.459-1.257l-.276-1.235c-.06-.26-.403-1.073-.763-1.808-.36-.734-.708-1.485-.774-1.67-.452-.897-1.014-1.221-1.88-1.902-.31-.24-.716.096-.406.321.415.365.555.542.852.918.21.236.381.482.381.546 0 .065.092.227.204.361.113.134.478.775.813 1.425.607 1.182.43 1.201.58 1.694.114.374.144.637.192.865.05.243.074.728-.102.867-.099.078-.498.276-.644.46-.256.327-.289.507-.35.734-.095.351-.104.544-.003.796-.367-.359-.453-.63-.782-1.415-.205-.536-.277-.756-.616-1.396-.223-.58-.808-1.138-1.504-2.058-.33-.498-.63-1.02-1.203-1.107-.433-.06-.546.028-.771.148-.454.487-.715 1.312-.83 1.667.017.5.086.923.19 1.366.223.613.085 1.037-.07 1.5-.151.449-.35.976-.38 1.195-.158.806-.244 1.294-.481 2.115-.678.95-1.628.69-2.085 1.401-.333.758-1.017 1.993-1.305 2.584-.89 1.712-1.954 3.304-2.828 5.048-.24.598-.318.747-.484.926-.165.176-.22.767-.072.767 1.28 9.098 7.952 6.767 10.04 6.414.195 0 .666.345.892 2.496.041.396.118 1.101.17 1.567.176 1.58.857 6.34.852 7.874-.015 3.761-.205 5.747.756 10.054 0 .07 11.043-25.311 16.373-33.367 1.56-1.706 4.948 1.215 8.29 2.859 11.313 6.581 24.773 30.89 24.773 4.389 0-26.502 0-26.502-.175-26.395-.424-.067-.931-.751-1.519-.913-3.237.178-15.106.147-14.286-7.712-.033-.71-.358-1.299-.906-1.825-.373-.003-1.546-.195-1.546-.79-.106-.493-.534-1.04-.931-1.42-.495-.33.544-1.175.79-2.052.487-1.728.474-1.653.382-2.321-.1-.723-.045-.893.317-.965.546-.11.826-1.015.57-1.84l-.347-1.12c-.13-.416-.357-.92-.518-1.143-.553-.771-.73-1.193-1.313-3.15-.188-.63-.437-1.372-.553-1.652-.117-.279-.3-.755-.41-1.058a19.747 19.747 0 00-.591-1.384c-.217-.458-.435-1.05-.485-1.312-.05-.264-.253-.822-.453-1.241-.199-.42-.459-.994-.577-1.278-.821-1.966-2.046-3.7-3.696-5.236-.396-.368-.733-.723-.748-.79-.017-.066-1.422-.1-3.444-.106zm-.425 25.388c1.168.049 1.987.4 1.715.862-.38.363-.75.532-1.077.626-1.633.466-2.809-.036-1.975-.953.456-.365.857-.551 1.337-.535zm4.896.587c.512 0 .997.24 1.164.573.21.442.073 1.118-.083 1.423-.1.332-.183.628-.382.966-.28.577-.792.916-1.372 1.676-.447.437-.653.846-1.07 1.28a3.224 3.224 0 00-.469.51c-.28.288-.696.816-.673 1.349-.058.906.165 1.178-.722 1.334-.75.262-1.097.317-1.429.812-.242.226-.845.225-1.275-.003-.378-.199-.396-.348-.094-.791.122-.181.242-.496.265-.7.153-.41.303-.339.328-.805.005-.376-.087-.495-.262-.661-.252-.24-.895-.962-1.025-1.315-.123-.333-.192-.908-.613-1.23-.483-.368-.522-.757-.153-1.535.12-.256.17-.56.22-.643.083-.14.163-.248.534-.248.299.05.388.03.616.145.314.158.598.334.907.39.196.01.584.056.863.105.393.033.752-.11 1.146-.207.368-.042.633-.28.909-.463.182-.107.343-.313.473-.607.249-.562.418-.624.834-1.075 0 0 .851-.279 1.363-.28zm-15.324.91c.75.023 1.178.371 1.402.522.338.228-.287.56-.576.714-.283.151-.845.264-1.29.295-.46.032-1.335-.503-1.313-.616.04-.212.734-.84 1.436-.905.12-.011.234-.014.341-.01zm2.444 1.99c-.038-.005-.08.009-.09.008-.143-.012-.417.24-.569.432-.17.21-.387.34-.61.501-.084.093-.328.199-.2.374.082.115.813-.392 1.067-.633.255-.24.45-.404.467-.577.007-.076-.027-.1-.065-.105zm21.443 2.053c.06.009.094.055.091.154-.008.257-.169.58-.378.903-.523.593-.691 1.056-.715 1.396-.042.562-.183 1.841-.305 1.97-.298.44-.438 1.025-.874 1.356-.354.248-.5.163-.28-.16.239-.354.679-1.446.854-2.123.4-1.325-.543-.043-.793.558-.098.54-.394 1.47-.562 1.766a7.428 7.428 0 01-1.114 1.568c-.135.283-.363.46-.363.283 0-.05.19-.43.423-.843.434-.774.526-.966 1.065-1.825-.46-.505-1.173.5-1.486.98-.556 1.056-1.91 2.033-2.711 3.182-.27.279-.553.631-.629.783-.244.487-.68.05-.48-.475.485-1.278 2.192-3.312 2.987-4.309.842-1.055 1.585-2.024 2.457-2.95.14-.149.487-.484.87-.8.416-.342.6-.71.939-.9.4-.225.823-.539 1.004-.514zm-16.38 1.945c.182.005.35.046.447.13.226.199.192.665-.065.903-.208.193-.347.259-.978.46-.677.216-1.01.09-1.01-.38 0-.264.37-.502.565-.65l.263-.2c.125-.173.472-.27.777-.263zm-.141 4.214c.17 0 .313.182.313.398 0 .21-.158.256-.322.093-.136-.136-.13-.491.009-.491zm3.062 0c.16 0 .314.287.248.46-.076.196-.196.161-.29-.085-.113-.296-.103-.375.042-.375zm-2.159.184c.091-.004.172.11.172.282 0 .11-.038.225-.085.253-.116.072-.284-.384-.18-.488a.142.142 0 01.093-.047zm3.418 1.645c.206.006.395.132.395.3 0 .103-.34.077-.622-.048-.24-.106-.241-.106.023-.216a.493.493 0 01.204-.036zm-5.1.158c.269 0 .493.123.753.184.117.01.509.067.871.126.574.094.706.09 1.023-.027.396-.147.549-.143 1.07-.065.436.033.638.13.889.246 0 .068-.096.146-.212.173-.302.272-.578-.01-1.007.127-.522.249-.897.14-1.348.18-.573-.055-.519-.203-.985-.269-.468-.157-.468-.164-.863-.173-.236-.005-.473-.035-.526-.068-.26-.161.018-.404.335-.434zm-5.406 2.08c.076-.003.149.037.233.223.447.985.426 1.415-.083 1.678-.565.292-1.034.072-1.134-.533-.167-1.01.315-1.09.73-1.322.098.007.177-.041.254-.045zm5.6 1.13c.114-.005.216-.004.3.002.709.053 1.125.126 1.706.207.62.086 1.02.197 1.466.35 1.169.566 2.524 1.128 3.565 1.574.824.493 1.484.792 2.678 1.382.958.55 2.31 1.468 3.04 2.078.885.704 1.957 1.44 3.106 2.347 1.704 1.348 2.431 2.129 4.275 3.195.564.377 1.41.955 2.003 1.452.717.55 1.164 1.206.37 4.06-.097.35-.298 1.34-.447 2.201a42.49 42.49 0 01-.42 2.16c-.082.325-.27 1.354-.419 2.285-.122.997-.231 1.698-1.144.873-.672-.677-.755-.943-1.52-1.593-1.4-1.192-1.432-1.148-3.235-2.475-.951-.7-1.427-1.166-2.179-1.546-.751-.38-1.896-.408-3.152-.83-2.121-.713-4.332-1.791-6.17-3.595-.346-.34-1.088.296-1.652.437-1.025.553-1.67.897-2.603 1.758-.327.352-.724.496-1.253-.035-.847-.849-.55-1.586.993-2.465.533-.303 1.42-1.134 1.555-1.454.124-.297.3-1.03-.082-1.383-.227-.209-.99-.101-1.24-.009-.702.26-1.246.37-1.809.665-.8.422-1.187.466-1.49-.553-.487-1.643.176-2.208 2.904-2.477 1.494-.148 2.216-.992 1.531-1.789-.208-.242-.932-.447-1.222-.346-.143.05-.82.115-1.504.146-1.748-.023-1.72.991-2.329.135.064-2.274.869-2.702 2.494-2.87.17-.018 1.674.133 2.953.198 1.381.071 2.726-.274 2.5-.641-.22-.355-1.418-.793-2.553-.933-.285-.035-.643-.126-.796-.203-.397-.198-.92-.172-1.583.078-.478.18-1.058.346-1.557.599-.601.302-.704.238-.646-.402.093-1.024.683-1.604 2.359-2.317.415-.177.866-.251 1.207-.266zm-10.534 6.578c.069.008.171.252.17.395 0 .333-.229 1.04-.393 1.222-.392.433-.822-.222-.54-.909.18-.434.613-.725.763-.708zm-2.627.147c.316.037.441.508.073 1.079-.208.325-.22.837-.586.83-.45-.008-.378-.21-.442-.516-.07-.338.19-.898.434-1.142.195-.195.378-.268.521-.251z" fill="#6b6b6b"/><path d="M28.724.004c-1.842 0-6.697.276-7.388.295-.2-.123-2.76-.025-4.801.183-.49.05-.486.046-1.625 1.746-1.269 1.893-2.315 5.51-2.308 7.978.048 2.61-.146 4.8-.324 7.877.262 2.539.385 5.518 1.05 8.065.24.473.262.487.931.57.446.056.487.08.532.306.034.169.11.257.25.286.623.283.76.166 1.049.1.428-.174 1.04.241 1.61.425.16.072.275.318.46.467.141.082.37.189.59.246.221.058.435.065.545-.053.185-.198-.544-.61-.75-.83.084-.226.285-.191.598-.529.415-.23.823-.429.937-.483.268-.127.291-.462.223-.447l-.344.013a2.816 2.816 0 00-.62.251c-.246.14-.364.165-.594.458-.485.315-.674.14-.359-.252.076-.216.85-.564 1.107-.705.199-.108.348-.177.624-.424.454-.427 1.006-.74 1.494-1.105.347-.274.435-.287 2.197-.334.545.063 1.112-.199 1.572-.196.175.028.718.067 1.207.086 1.355.053 3.546.197 4.037.266.595.033.85-.032 1.303.059 0 .313-.669.313-1.105.307-.442-.007-1.028-.042-1.738.295-.359.17-.776.31-.928.31a.909.909 0 00-.478.156c-.436.339-1.229.628-1.428.522-.232-.124-.29-.07-.222.206.047.186.101.216.388.216.337 0 .68.24.68.476 0 .058.105.18.235.273.13.092.29.268.355.39.127.238.416.24.805.006.124-.074.355-.082.848-.03.372.04 1.122.101 1.665.135 1.119.07 1.226.12.89.41-.483.416.525.338 1.27-.098.298-.174.999-1.052 1.198-1.499.086-.193-1.063.297-1.487.634a.252.252 0 01-.222.04c-.064-.025-.523.024-1.02.108-.902.154-1.566.114-1.908-.105-.342-.22-.363-.617.02-1.179.766-1.124 3.195-.806 4.048-.096.2.188.426.328.67.176.133-.083.143-.528-.202-.818-.093-.079-1.152-.433-.6-.634 1.43-.152 2.671.34 3.325.5.523.148.952.27 1.476.552.319.026.75.552.66 1.27.01.393.038.647-.04.98a3.088 3.088 0 01-.78 1.496c-.149.282-.504.732-.877 1.034-.848.525-1.403 1.443-2.318 2.029-.08.12-.311.393-.515.606-.572.755.167.954.658 1.319.577.083.574 2.632-.005 3.357-.198.249-.36.487-.36.53 0 .293-.672-.169-1.044-.718-.58-.388-.815-.82-1.158-1.29 0-.182-.252-.138-.428.073-.214.257-.214.256.186.823.437.62.407.8-.12.72-.3-.044-.388-.024-.521.123-.473.055-.588-.132-.926-.084-.146.078-.247.083-.368.019a.558.558 0 00-.35-.042c-.216.057-.234-.028-.047-.234.226-.25-.072-1.007-.395-1.007-.22 0-.25.091-.153.47l.131.52c.105.427-.25.694-.75.565a3.593 3.593 0 00-.643-.116.886.886 0 01-.352-.082c-.357.008-.47.237-.894.082-.185-.204-.275-.21-.62-.037-.45.225-.862.258-.863.07 0-.088-.024-.36-.054-.604-.06-.503.248-.618.804-.299.24.138.262.138.415 0 .305-.276.753-.193.928.172.152.317.152.317.194.043.046-.296.75-1.452.889-1.458.277-.012 1.103-1.152 1.196-1.65.164-.879-.276-1.342-.486-.511-.052.21-.129.403-.17.428-.197.122-2.027.541-2.367.543-.309 0-.429.047-.593.224a1.472 1.472 0 01-1.043.455c-.571 0-.893.205-.896.57 0 .103-.078.312-.17.465-.11.53.02.64-.187.912-.426.36-.557 1.372-1.25 1.229-.568-.18-1.457-.075-1.005.763.548 1.015.819 1.413.995 2.016.1.345.109.665.142.916.116.861-1.141 1.403-1.665 1.04-.525-.363-1.28-1.65-1.586-2.113-.25-.378-.118.435.113 1.37.224.907.5 2.263.476 2.92-.023.659-.393.98-.921.917-.589-.07-1.04-.833-1.417-1.28-.112-.134-.391-.64-.406-.64-.014 0 .149.845.149 1.392-.105.958-.042 1.84-.044 2.785.009.59-.06 1.598-.468 1.956-.71.623-1.504-.334-1.856-2.24a12.28 12.28 0 00-1.049-3.175c-.315-.76-1.125-1.987-1.348-1.987-.215 0 .345.96 1.014 2.068.35.62.496 1.39.721 2.09.138.476.139.827.273 1.15.149.408.312.83.09 1.52-.095.3-.13.546-.292.799-.162.252-.324.336-.689.364-.365.028-.7-.012-.975-.27-.526-.897-.528-.738-.926-1.625-.245-.514-.485-.957-.727-1.53-.242-.574-.903-1.298-1.165-1.656-.198-.262-.712-.743-.83-.876-.72-.161-1.273.602-1.351 1.458.086.824.482 1.345.189 2.257-.289.778-.424 1.473-.439 2.067-.102.606-.134 2.456-1.423 2.697-1.362.1-1.561 1.581-2.74 3.236-.644 1.244-1.234 2.206-1.892 3.585-.6 1.255-.591 1.683-1.642 2.874.025 2.547-.026 6.423-.084 9.02.426 2.725.2 4.495.426 5.74 2.755-.124 5.352-4.627 6.25-4.697.798-1.201 3.587-3.517 3.784-3.199.13.21.752 6.124.743 7.064.009 1.616.263 3.225.266 4.843.06 2.377.16 7.307.553 9.868-.048.078.551-.017.571.042.026.078.34.106 1.181.106 4.195-.14 14.497.045 22.223-.012 3.397-.009 3.17.023 2.948-.413-.092-.181-.169-.406-.169-.5 0-.093-.06-.298-.135-.454-.127-.265-.124-.32.042-.858.232-.75.225-.884-.063-1.236-.408-1.738-1.02-5.14-1.411-7.068-.063-.186-.136-.725-.162-1.197-.027-.472-.12-1.1-.209-1.397-.17-.57-.226-.885-.35-1.978-.044-.372-.121-.848-.173-1.058-.219-.876.905-1.605 1.24-.805.107.258.162.297.414.297.324 0 .554.237.554.574 0 .123.16.36.425.63.454.46.484.465 1.52.222.104-.025.12.12.105.9-.016.803.011 1.023.201 1.61.162.498.207.775.17 1.045-.028.214-.009.442.048.549.054.1.09.387.08.636-.013.306.027.523.122.668.077.118.153.402.17.63.051.751.363.967.373.26.002-.107.06-.216.13-.243.075-.029.123-.143.116-.273-.016-.295.295-.989.476-1.058.214-.082.283-.002.332.392l.14 1.12c.09.72.252 1.382.439 1.791.046.1.062.217.037.258-.026.042.022.36.107.707.085.347.203.85.263 1.119.125.566.264.733.47.562.14-.117.138-.286-.019-1.447-.128-.947.131-1.255.412-.489.092.254.203.5.246.547.104.112.251-.124.193-.31-.025-.08.032-.214.133-.308.204-.19.167-.502-.104-.87-.088-.12-.253-.577-.366-1.016-.369-1.431-.604-1.603-.501-.365.05.605.04.71-.07.71-.152 0-.314-.418-.314-.807 0-.15-.062-.478-.136-.728-.375-1.256-.671-1.655-.965-1.302-.069.084-.18.108-.328.073-.302-.073-.302-.074-.18-.369.092-.222.085-.308-.047-.602-.125-.278-.133-.355-.042-.411.339-.21-.845-3.054-1.32-3.173-.127-.032-.2-.112-.2-.22 0-.502-.235-.777-.497-.583-.137.101-.286.16-.33.133-.128-.079-.198-.696-.108-.934.136-.357-.274-.788-.566-.596-.432.283-.66-.409-.413-1.256.075-.258.136-.547.136-.64 0-.286.245-.462.57-.41.414.068.58-.524.26-.932-.049-.062-.04-.16.022-.26.176-.28-.114-1.087-.452-1.26a3.35 3.35 0 01-.512-.34c-.423-.353-.625-.264-.305.135.212.264.28.445.326.867.032.294.104.62.161.724.085.154.08.236-.025.44-.071.138-.13.295-.13.348 0 .053-.073.2-.162.325-.09.126-.175.36-.19.521-.024.245-.06.29-.216.273-.14-.014-.222.055-.324.269-.17.357-1.234 1.317-1.46 1.317-.256 0-.357-.185-.302-.555.05-.334.05-.334-.215-.038-.146.163-.342.44-.435.614-.105.196-.232.318-.331.318a.96.96 0 00-.286.048c-.072.027-.213-.047-.334-.178-.21-.225-.21-.225-.39.029-.544.763-1.35.29-1.487-.873-.027-.233-.124-.519-.215-.635-.45-.578-.788-1.322-.85-1.88-.056-.504-.098-.6-.37-.856-.169-.16-.307-.347-.307-.417s-.095-.343-.211-.607c-.238-.538-.266-.945-.082-1.188a.635.635 0 00.124-.314c0-.083.075-.19.166-.24.092-.049.206-.24.255-.426l.172-.664c.128-.497.11-1.197-.032-1.197-.21 0-.317.232-.429.93-.078.489-.164.745-.299.888-.104.111-.173.252-.153.313.056.167-.354.466-.443.323-.079-.128-.028-.872.1-1.457.101-.468-.047-2.321-.235-2.941-.185-.611-.16-1.129.051-1.062.214.068.22-.073.01-.272-.216-.206-.602-1.397-.602-1.858 0-.644.467-2.386 1.479-2.457 1.188.2 2.465 1.056 2.91 1.743.313.424.603 1.421 1.125 1.935.218.215.278.333.476.433.43.219.456.396.106.704-.208.182-.255.29-.256.59a4.02 4.02 0 01-.087.731c-.103.449.005.695.306.695.123 0 .315.106.46.254.136.14.323.254.415.254.345 0 .277.438-.087.553-.238.076-.188.572.125 1.233.123.26.224.518.224.571 0 .054.112.098.248.098.251 0 .537.264.641.592.049.153.284.296.36.219.084-.084-.16-1.155-.364-1.601-.135-.295-.26-.805-.338-1.384-.067-.504-.17-1.12-.226-1.369-.096-.417-.089-.478.084-.779.126-.217.188-.467.188-.749 0-.74.326-.843 1.239-.394.374.185.66.275.776.245.512-.134 1.327.721 1.505 1.58.09.43.07.71-.03.427-.083-.232-.435-.512-.645-.512-.263 0-.475-.287-.475-.643 0-.464-.535-.925-.722-.622-.12.194.072.51.712 1.17.761.783.984 1.17.905 1.564-.113.567-.104.598.202.698.16.053.434.215.608.361.347.292.497.333.497.139 0-.078.08-.127.206-.127.266 0 .292-.05.357-.675.064-.615.12-.58.326.202.153.585.153.585-.03.733-.23.188-.228.228.03.467.12.111.211.29.211.414 0 .12.057.24.126.267.234.09.626.72.517.936-.038.985-.174 2.023-.333 3.202.006 1.07-.148 1.81-.175 2.612-.146.603-.29.89-.462 1.698.05.105-.003.445.024.668.045.384.39.99.564.99.04 0 .204.116.364.257.16.14.533.334.829.43a4.398 4.398 0 011.639.924c.214.185.436.337.493.337.058 0 .408.186.78.415.674.415.674.415 1.218 1.63.878 1.963 1.06 3.21.597 4.08-.14.261-.254.536-.254.61 0 .204-.419.877-.61.979-.28.15-.555.01-.9-.455-.693-.94-.79-.788-.312.488.454 1.211.975 3.163.975 3.651 0 .49-.081.595-.508.646-.163.02 3.967-.001 8.148.006 3.8.007 5.861 0 6.65-.05.06-1.152.067-2.212.061-5.07-.061-23.002.02-29.632.037-33.396-.006-.791.017-1.364.02-3.1.008-.798.029-.595-.228-.775a.259.259 0 00-.14.173c-.014.064-1.45 2.205-1.76 2.232-.31.027-.617.022-.617-.041.501-.976 1.609-2.423 2.245-3.245.196-.154.43-.274.473-.417-.007-.718.017-2.224.005-3.244-.021-2.964-.021-2.963-.212-2.963-.464 0-.35.092-.647.277-.405.252-.595.859-.595.859-.436.426-1.63 2.656-1.63 2.863 0 .199-.148.266-.72.33-.535.199-.33-.318-.296-.614.105-1.141 1.834-3.681 2.644-4.738.14-.133.194-.311.356-.457.045-.517.29-1.096.238-1.776a4.706 4.706 0 01-.272-.175c-.51-.338-1.163-.545-1.747-1.043-.273-.295-.55-.406-1.597-.993-.514-.162-1.044-.448-1.609-.536-.892-.164-2.633-.557-3.85-1.455-.505-.418-.743-.545-1.522-.814-.59-.204-.82-.26-1.927-.47-.497-.096-1.033-.592-1.604-.937-.605-.284-.977-1.07-.893-1.885.07-.721-.147-1.288-.55-1.863-.335-.304-.426-.095-.74-.224-.336-.973-.69-1.82-1.303-2.651-.353-.363-.375-.563-.147-1.352.318-1.102.376-1.474.354-2.291-.024-.916.002-.982.427-1.084.899-.214.604-2.557-.529-4.202-.208-.303-.42-.665-.469-.804-1.07-3.032-2.254-6.771-3.8-10.119-.81-1.922-2.263-3.932-3.894-5.392-.31-.277-.516-.525-.491-.59.036-.094-1.077-.113-6.474-.113zm-6.956 26.123c-.349-.01-.698 0-.778.043-.343.184-.153.562.221.512.604-.08 1.153.525 1.343.584.266.083.234.316.002.522-.223.199-.847.577-1.461.733-.457.115-.818.143-1.019.094-.356-.085-.398.175-.26.369.22.31.562.402.802.367.216-.032.663-.292 1.02-.379.376-.091.533-.115.868-.296.4-.215.864-.603 1.011-.679.147-.076.344-.138.438-.138.206 0 .304-.172.383-.677.125-.802.076-.922-.318-.779-.262.095-1.221-.025-1.479-.184-.077-.048-.425-.081-.773-.092zm20.853 2.535c-.012.477-.252.996-.506 1.094-.16.06-.374-.032-.488-.108-.17-.113-.166-.832-.21-1.27-.027-.265-.081-.66.026-.769.108-.108.317.086.51.086.12 0 .411-.014.51-.181.088-.15.112-.149.189-.153.077-.005-.022.92-.031 1.301zm2.27.455c.337.017.664.186.82.398.313.448.205 1.302.178 2.03-.028.745-.347 1.411-.745 2.036-.415.638-.88 1.297-1.338 1.92-.605 1.169-1.877 2.651-2.571 2.995-.5.248-.68.41-1.021.92a8.02 8.02 0 01-.634.804c-1.303 1.416-1.772 1.848-1.986 1.591-.24-.16-.326-.196-.727-.405-.18-.083-.797-.658-.797-.812 0-.44 2.61-4.631 3.144-5.049 1.358-1.163 1.693-2.795 2.867-3.45.71-.718.974-.948 1.434-1.576.536-.659.607-1.182 1.376-1.402zm-12.148 9.475c.064-.004.128-.003.19.001.416.03.766.228.766.523 0 .178-.465.427-.795.427a.43.43 0 00-.357.213.692.692 0 01-.34.263c-.261.066-.56.334-.287.658.102.493.449.697.91.7 1.293.006 2.06.622.932.75a9.75 9.75 0 01-1.605.215c-.126.067-.251.218.16.415.575.246 1.072.616 1.608.728 1.416.625 2.018.96 2.952 1.427a79.629 79.629 0 002.533 1.582 133.36 133.36 0 004.636 3.06c1.699 1.412 3.098 2.622 5.045 3.621.081 0 1.486 1.022 1.769 1.287.977.373.59.752.283 1.973-.527 2.046-.94 4.253-1.361 6.434-.411 2.522-.531 2.889-1.076 5.227-.838-.615-.955-.72-1.532-1.27-1.154-1.08-1.823-1.537-2.668-2.246-.438-.595-1.03-.824-1.74-1.378-1.132-.884-1.607-1.116-2.559-1.766-2.162-.808-3.618-1.058-5.261-1.895-1.093-.495-2.395-1.386-3.403-1.946-.283-.156-.632-.276-.9-.278-.267-.001-.477.068-.864.235-.539.233-1.238.825-1.687 1.335-.45.51-.757.463-1.113.649-.327.17-.82-.193-.82-.193-1.112-1.244-1.02-2.478-.27-2.757.08-.03.325-.172.543-.315.218-.143.549-.352.736-.465.451-.27 1.264-1.105 1.284-1.319.066-.674-.254-.79-.995-.654-.434.08-.565.083-1.04.273-.866.347-1.135.629-1.975.512-.72-.1-1.265-1.983-.794-2.66.213-.307.317-.625.153-.668-.761-.2-.826-2.704-.117-4.5.252-.64.29-.822.248-1.186-.103-.881.502-2.29 1.073-2.498a2.02 2.02 0 00.494-.3c.14-.118.305-.214.367-.214s.43-.138.819-.306c.948-.41 2.12-.392 2.972-.156.294.082.722.093.813.026.302-.22-.883-.792-2.149-1.265-.32-.12-.55-.28-.732-.504a1.413 1.413 0 00-.61-.445c-.337-.112-.592-.653-.43-.913.12-.194.962-.273 1.346-.126.378.137.772.065 1.12.16.521.266.722.212 1.406-.064.628-.254.58-.126.816-.128.228-.002.454.113.94-.133a1.43 1.43 0 01.566-.146zM27.5 45.009c-.593-.015-1.32.193-1.905.359-.659.18-.852.43-.192.434.502.093 1.292.1 1.723.18 1.66.307 3.81.075 3.28-.354-.381-.207-.803-.17-1.212-.276-.673-.22-1.237-.334-1.694-.343zm-.754 4.35c-.588.004-1.186.092-1.729.192-.514.013-1.115.182-1.267.339-.393.405.322.945.322.945.018.053.162.115.322.14.159.023.65-.005 1.093-.064.443-.059 1.139-.149 1.547-.2 1.138-.145 1.493-.88.746-1.253a4.614 4.614 0 00-1.034-.1zm5.839 13.646c-.062-.013-.156.036-.267.168-.102.121-.251.244-.332.273-.151.053-.198.235-.088.344.149.149.474-.003.647-.303.154-.265.142-.46.04-.482zm-1.817.18c-.11-.016-.227.122-.163.227.083.134.301.112.301-.03a.23.23 0 00-.092-.18.123.123 0 00-.046-.016zm9.195 2.859c-.125 0-.196.228-.125.402.056.136.067.134.13-.021.099-.24.097-.381-.005-.381zm2.262 1.707c-.111.002-.245.068-.393.207-.395.373-.351.621.165.945.396.248.454.212.532-.323.075-.528-.06-.834-.304-.83zm-4.72 3.642c-.057.003-.091.07-.15.2-.136.296-.13.328.12.625.299.355.426.33.495-.1.052-.325.035-.377-.18-.55-.15-.119-.228-.178-.285-.175zm5.123 1.12a.07.07 0 00-.042.01c-.121.076-.097.339.062.672.191.401.275.378.219-.06-.048-.375-.142-.615-.24-.623zm-2.574 1.501c-.024-.003-.045.001-.06.017-.025.024-.02.085.01.135.07.112.216.119.216.01 0-.074-.094-.153-.166-.162zm1.906 1.546c-.047-.003-.06.064-.016.18.029.075.093.111.142.08.061-.037.058-.093-.012-.176-.046-.056-.086-.082-.114-.084zm3.082 11.82c-.433 0-.54.247-.262.603.267.342.52.902.52 1.155 0 .132.045.286.101.342.394.394.42-.206.057-1.301-.203-.613-.3-.799-.416-.799zm-3.45 2.214c-.159.02-.128.204.088.35.119.08.222.1.273.05.12-.113-.06-.364-.282-.397a.307.307 0 00-.08-.003zm.501.665c-.331 0-.44.54-.158.786.159.138.163.178.06.488a2.3 2.3 0 00-.11.449c0 .067-.071.097-.182.076-.1-.02-.312.003-.472.049-.233.067-.073.085.787.091.594.005 1.074-.02 1.067-.055a.553.553 0 01.056-.225c.143-.331-.695-1.659-1.048-1.659zm4.065.07c-.058-.004-.13.11-.208.354-.078.243-.143.517-.143.61 0 .092-.076.264-.17.382-.193.247-.215.413-.063.475.059.024.335.043.614.044.386.001.463-.017.318-.075-.177-.071-.19-.128-.19-.825 0-.624-.061-.96-.158-.965z" fill="#515151"/><path d="M34.072.02C29.11.037 22.304.01 16.645.044c-.689.646-1.689 2.19-2.605 4.077-.477 1.11-.757 2.41-1.054 3.75-.194.919-.301 2.419-.258 5.797-.117 1.648-.23 2.91-.263 4.359-.034 1.544.256 3.856.54 5.955.021.702.115.943.298 1.78.266.701.32.798 1.035.88.405.046.506.09.565.246.215.2.526.297.868.347.428-.432 1.203-.493 2.138-.775.67-.526 1.611-.7 2.274-1.385.736-.55 1.723-1.097 3.075-1.206.43-.175 2.805-.215 4.218-.072.583.06 1.045.06 1.482-.002.767-.106 1.524-.143 2.28-.309 1.593.078 2.875-.108 4.242-.068 1.284.27 2.088.615 3.21 1.073 0 0 1.283.51 2.09 1.054.277.361.107.897.237 1.249.289.359.38.461.639.515.608.045.78-.013 1.213-.659.206-.124.018.88-.026 1.38 0 1.948-.605 2.612-1.653 1.812-.393-.3-.447.019-.696.755-.63.51-1.315.921-1.8 1.59-.654.707-1.157 1.03-1.817 1.769-.536.35-.72.653-.74.955-.044 1.005.226.52.14 1.588-.41.547-1.035 2.712-.715 3.394 0 .288-.11.305-.49.074-.41-.209-.833-.488-1.236-.484-.157.033-.35.141-.56.189-.343.078-.381.11-.381.329 0 .18-.054.262-.207.32-.508.188.392.788 1.203.8.572.01.775.05 1.133.233.866.44 1.04.794 1.427 1.653.235.25.38.486.38.612 0 .679 2.09 2.414 2.821 2.343.349-.16 3.478-4.776 4.292-5.938.47-.661 1.271-1.04 1.698-1.607.564-.623.895-.317.496.458-.186.666-.278 1.36-.552 2.007-.432 1.14-1.138 2.408-2.001 3.433-.811.853-1.278 1.28-2.09 2.182-.328.146-.327.245.011.643.644.72 2.192 1.164 3.167 1.853.065.025.243.066.394.203.47.414.21-.423.189-.784.297-1.68 1.141-3.16 1.58-4.848.372-1.197.39-2.603.602-3.893.042-.846.098-1.636.345-2.608.118-.822.452-1.638.563-2.661.08-.33.381-.69.115-1.012-.446-.29-.768-.577-1.228-.815-.211 0-.47.757-.54 1.41-.11.971-.73 1.709-1.14 2.705-.501.655-1.118.488-1.64 1.07-1.143 1.109-1.25.75-.62-.037.593-.648 1.057-1.585 1.537-2.228.203-.339.5-.717.817-1.069.02-.802-.722-.085-.826.068-.162.24-.435.63-.607.866-.606.835-1.01 1.436-1.157 1.723-.082.16-.341.477-.575.705-.564.684-1.343 1.18-2.173 1.833-.916 1.127-2.255 2.531-2.475 2.548-.425-.23-.759-.345-1.523-1.004-.486-.486-.498-.598-.136-1.23 1.305-2.27 2.272-3.786 2.812-4.406.464-.532.864-1.178 1.457-2.348.72-1.453 2.068-1.764 2.776-3.026.264-.514.42-.796.638-1.421.41-.982-.11-3.19-.591-2.61-.326.393-.336-.11-.018-.872.466-1.112.634-1.902.644-3.021.008-.931.009-.931.299-1.026.461-.15.683-.472.683-.99 0-.618-.58-2.377-.958-2.916-.38-.54-.637-1.047-.78-1.537-.455-1.51-.93-2.974-1.541-4.454-.709-1.855-1.457-3.534-2.259-5.492-.008-.036-.775-1.518-1.26-2.228-.743-1.109-1.38-1.681-1.927-2.229C35.336.7 35.189.382 34.072.021zm-4.727 25.258c-.373.059-.717.235-1.065.407a2.98 2.98 0 00-.954.22c-.463.213-.46.224.304 1.041.342.366.395.394.628.327.375-.108.518-.36.518-.526.08-.167-.033-.43.068-.581.101-.15.483-.223.563-.405.168-.185.153-.486-.062-.483zm-7.349 1.06c-.108.013-.176.079-.176.21 0 .13.28.157.427.223.13.059.41.27.584.348.173.08.328.36.242.41 0 0-.203.177-.251.303-.107.308.3.225.582.012.097-.06.375-.12.517-.205.167-.1.125-.25.127-.4 0-.055.008-.184.049-.275.11-.246-.041-.242-.7-.286-.414-.028-.851-.163-.979-.228-.163-.083-.313-.124-.422-.112zm27.852 7.45c-.344-.006-.385.496-.384.894 0 .484-.154 2.523-.407 2.824-.06.375.403 1.307.353 1.903.105.077-.001 2.793.03 3.724.021.645.038 1.236.085 1.247.432.103.471-.231.456-1.168.147-1.747.226-3.515.477-5.189.087-1.014.232-2.227.11-3.314 0-.479.077-.78-.554-.886a.5.5 0 00-.166-.035zm-20.53.737a2.16 2.16 0 00-.17.002c-.299.012-.731.077-1.24.199-.366.088-.754.16-.86.16-.107 0-.302.09-.433.2-.411.344-.93.562-1.337.562-.443 0-.472.077-.173.454.334.423.432.498.907.698.247.103.453.192.46.196.005.004.154-.053.33-.126.176-.074.475-.16.665-.193.316-.054.203-.183.344-.625.092-.292.304-.487.42-.563.418-.126.709-.394 1.047-.621.438-.21.392-.33.04-.342zm3.49 3.47c-.285.008-.552.054-.75.156-.432.085-.638.082-.915.018-.055-.018-.274-.006-.487.027a2.29 2.29 0 01-.621.016.441.441 0 00-.399.102c-.155.141-.193.141-.765 0-.759-.128-1.58-.01-2.207-.126-.627 0-1.229.537-.691.616.237.035.294.03.741-.073.467-.18 2.119-.098 2.568.094.484.222.503-.047 1.093-.043.361-.187.717-.223.775-.223.273.036.44-.053.62-.044.327-.1.543-.101.85-.104.912.127.857-.325.188-.416zm-7.624.304c-.106-.003-.213.071-.34.222-.267.318-.4.085-.91.041-.273-.023-.348-.009-.524.205-.26.198-.323.195-.64.456-.148.2-.316.776.105 1.662.399.838.264 1.274.23 1.528-.09.655-.317.925-1.005 1.195-.253.139-.576.224-.869-.048-.292-.272-.486-.43-.625-.546a1.814 1.814 0 01-.347-.38c-.169-.302-.191-.086-.062.59.167.872.292 1.968.218 2.637-.036.326-.126.567-.41.732-.287.167-1.175.077-1.552-.419-.45-.592-.537-.77-.536-.226 0 .335-.022.522-.08 1.01-.108 1.126.028 2.11-.207 3.295-.334.98-1.448.87-2.147-.211-.232-.358-.099.146-.378.734-.28.587-.228.849-1.121.83-.894-.02-1.285-.445-1.627-.941-.342-.497-.445-.868-.721-1.37-.276-.502-.392-.903-.859-1.507-.762-.986-1.39-1.116-1.606-.479-.162.478-.196 1.309-.238 1.795-.035.412-.294 1.293-.446 2.004-.205.47-.329 1.527-.766 2.523-.927.684-1.795.339-2.263 1.084-.668 1.064-1.634 3.065-2.473 4.361-.305.67-1.143 1.974-2.375 4.261-.676.482-.528.618-.562 1.886-.034 1.267-.04 3.841-.042 7.255-.001 3.394.02 6.231.048 6.304.079.205 1.445.128 2.403-.639 2.29-2.354 4.833-4.931 6.673-7.118 1.349-2.126 1.68-3.65 2.81-6.426 1.016-2.047 2.95-5.092 4.712-6.93 2.702-2.034 5.01-3.208 6.646-6.587-.391-.715-.308-2.726.17-4.123.17-.499.267-.965.285-1.38.04-.86.096-1.08.451-1.747.309-.579.309-.579.087-.762-.262-.215-.442-.533-.37-.65.093-.15.365-.086.532.125.22.28.584.445.708.32.16-.16.006-.36-.414-.536a8.299 8.299 0 01-.55-.25.67.67 0 00-.26-.08c-.444 0-.458-.427-.02-.592.275-.104 1.245.372 1.834.898.12.108.183.106.508-.014 1.54-.568 1.523-.564 2.276-.514.395.026.829.073.963.104.186.043.235.03.208-.06-.052-.174-.904-.578-1.388-.66a4.084 4.084 0 01-.884-.293c-.256-.122-.512-.223-.569-.223-.32-.243-.622-.52-1.022-.704-.287-.058-.472-.792-.262-1.045.081-.098.067-.169-.069-.352-.12-.16-.223-.24-.328-.245zm9.301 4.025c-.489.011-1.079.107-1.227.241-.331.3.118.337.95.658.362.14.678.416 1.204.558.525.142.818.145.816-.165-.001-.145-.653-.94-1.09-1.21-.103-.065-.36-.089-.653-.082zm22.063.46a.067.067 0 00-.032.001c-.04.01-.084.054-.131.143-.21 1.1-1.104 3.042-1.701 4.49-.664 1.583-.975 2.773-1.604 4.513-.137.04-.147 1.743-.384 2.44-.292.305-.238.5.3 1.082.58.628.692.539.657-.524.117-.826.114-2.091.412-3.067.362-1.332.754-2.704 1.28-4.099.01-.26 1.185-3.623 1.257-3.856.16-.516.097-1.087-.054-1.122zm-29.149 2.51c-.232 0-.422.022-.52.06-.614.233-.077.402.855.563.71.122 1.447.11 1.447-.062 0-.152-.487-.381-1.013-.487a3.993 3.993 0 00-.769-.075zm34.711.597c-.073-.016-.172.081-.275.296-.344.336-.67.078-.873.598-.729 1.338-1.312 2.596-2.286 4.02-.094.229-1.38 2.225-1.464 2.27-.203.108-.193.373.023.589.22.22.341.133.54-.388.08-.209 1.372-2.133 1.413-2.133.944-.988.83-1.28 1.083-1.768 0 0 .541-.92.775-1.427.416-.67.523-.912.815-1.293.279-.245.37 0 .37-.38 0-.239-.047-.368-.12-.384zm-34.817 4.147c-.249-.016-.611.109-1.193.109-1.11 0-1.206.281-1.072.5.069.11 1.35.051 2.034-.095.815-.173.823-.177.732-.269-.061-.06-.271-.192-.401-.229a.479.479 0 00-.1-.016zm.899 4.152a2.864 2.864 0 00-1.706.653c-.443.37-.39.283-.585.637-.195.354-.059.564.432.59.38.182 1.316-.648 1.882-1.414.095-.128.078-.466-.023-.466zm32.982 1.732a1.182 1.182 0 00-.191 0c-.48.007-.912.033-1.07.386-.404.485-.73.758-1.108 1.23-.382.455-1.39.24-1.557.334-.101.058.55.572.69.663.312.174.571.423 1.014.316.368-.252.23-.796.523-.978.445-.276.969-.72 1.487-1.253.521-.39.593-.665.212-.698zm-9.42 2.049a.298.298 0 00-.066.018c-.245.094-2.26 9.888-2.326 10.649a21.372 21.372 0 01-1.416 4.827c-.887 1.452-2.646 3.208-2.646 3.208.215.44 1.223-.382 2.507-1.597.762-1.115 1.55-3.175 1.624-3.858.13-.57.735-3.056.972-4.177.331-1.835 1.216-7.768 1.434-8.625.08-.318.054-.464-.083-.445zm10.395.047a.356.356 0 00-.108.024c-.105.033-.314.08-.466.104-.152.023-.297.077-.323.118-.479.156-.59.165-1.052.668-.303.382-.312.478-.07.735.101.108.205.196.23.196.173.1.32.153.599.228.264.072.038-.318.19-.516.15-.2.545-.294.663-.356.42-.195.42-.195.42-.717 0-.377-.004-.48-.083-.484zm-28.057 1.687a.176.176 0 00-.064.01c-.063.044 1.144 2.097 1.474 2.28.737.445.822.532.822.839 0 .137.047.324.105.417.2.32.488.063.488-.436 0-.819.399-1.01 1.396-.666.271.093.61.17.754.17.144 0 .409.04.588.09.179.05.342.074.363.054.054-.055-.612-.799-1.193-.904-.585-.19-.987-.405-1.603-.617 0 0-.64-.265-.77-.329-.475-.23-1.961-.913-2.36-.908zm6.742 3.153c-.109-.002-.124.064.02.223.11.12.147.275.13.53-.041.591-.007 1.04.127 1.72.042.213.554.507.75.431.114-.043.138-.16.127-.59-.014-.483.097-.906.238-.906.227 0 .363.314.365.839.001.307.045.71.097.897.08.286.119.6.15 1.206.013.256.255.087.302-.212.028-.174.13-.641.23-1.037.293-1.18.171-1.583-.6-1.978a3.176 3.176 0 01-.562-.386c-.442-.398-1.134-.732-1.374-.737zm-5.167.157c-.148-.017-.259.247-.3.726-.031.384-.017.525.054.502.249-.08.508-1.083.312-1.204a.158.158 0 00-.066-.024zm.831 1.16a.056.056 0 00-.027 0c-.047.014-.105.08-.183.194-.21.303-.165.458.148.51.273.045.3.009.229-.306-.058-.259-.104-.386-.167-.399zm8.322 1.561c-.284-.024-.427.385-.478.883-.11.83-.236 1.642-.357 2.442-.015.766-.191 1.665-.263 2.79.084 1.273-.13 1.76-.234 3.033-.206.876-.137 1.189-.137 1.405 0 .268.79.505 1.488-.229.499-.533.987-1.042 1.722-2.23.024 0 .707-.75 1.29-1.835.583-1.086.82-2.926.774-2.953-.387-.228-.917-.708-1.257-1-.561-.462-1.18-.948-1.87-1.722-.284-.4-.507-.57-.678-.584zm-13.628.34c-.01 0-.02.002-.033.01-.046.03-.082.174-.079.323.005.228.018.243.08.1.088-.206.099-.423.032-.432zm10.968 2c-.15 0-.258.332-.164.508.121.226.225.213.288-.036.056-.224-.01-.472-.124-.472zm-4.234 6.023c-.075.002-.181.061-.365.179-.35.223-.376.327-.115.456.44.218.865-.087.659-.472-.06-.11-.103-.165-.179-.163zm-2.122.592c-.015-.002-.028 0-.037.01-.026.026.002.127.063.225.12.19.203.222.275.104.047-.075-.193-.325-.301-.339zm12.518 6.635c-.117.001.218.415.48.966.398.84.667 1.205.762 2.099.093.883.026 1.287-.214 1.992-.255.587-.55 1.463-1.09 1.751-.33.15-.434.124-.803-.21-.449-.405-.369-.394-.03.69.27.86.588 1.609.77 2.334.12.472.094.945-.061 1.116-.137.15-.196.144 6.848.14 7.259-.004 7.204-.055 7.204-.055v-2.594c-.421-.21-.689-.387-1.3-.822-2.995-1.894-4.315-2.705-7.324-4.362a371.598 371.598 0 00-5.242-3.045z" fill="#333"/><g><path d="M30.774 58.028c-1.012.07-1.479 1.812-1.479 2.456 0 .462.387 1.653.603 1.859.21.199.204.34-.01.272-.212-.067-.237.45-.051 1.061.188.62.336 2.474.234 2.941-.128.586-.178 1.33-.1 1.457.09.144.5-.155.444-.323-.02-.06.048-.201.153-.312.135-.144.22-.4.299-.889.111-.697.218-.93.428-.93.142 0 .16.7.032 1.197l-.172.665c-.048.185-.163.377-.254.426-.092.049-.167.157-.167.24a.635.635 0 01-.124.313c-.184.244-.156.65.082 1.189.116.263.212.536.212.606 0 .07.138.258.306.417.273.257.314.353.37.857.063.558.4 1.302.851 1.88.091.116.188.402.215.635.137 1.163.943 1.636 1.487.872.18-.253.18-.253.39-.028.12.13.261.205.334.177a.96.96 0 01.285-.048c.1 0 .227-.121.331-.317.094-.175.29-.451.435-.614.266-.296.265-.296.216.037-.055.37.045.556.301.556.226 0 1.291-.96 1.46-1.318.102-.214.185-.283.324-.268.157.016.193-.029.216-.273.015-.161.1-.395.19-.521s.163-.272.163-.326c0-.053.058-.21.13-.347.105-.205.11-.286.025-.44-.057-.105-.13-.43-.161-.724-.046-.422-.114-.604-.326-.868-.32-.399-.119-.488.305-.134.131.11.361.262.512.34.338.173.627.98.452 1.26-.063.1-.071.198-.022.26.32.407.154 1-.261.932-.324-.052-.57.124-.57.409 0 .094-.06.383-.136.641-.246.847-.019 1.538.413 1.255.293-.191.703.24.567.596-.09.239-.02.856.107.934.045.028.194-.031.33-.132.262-.194.498.08.498.582 0 .108.072.189.2.22.474.12 1.658 2.964 1.32 3.174-.092.056-.084.133.041.41.133.294.14.38.048.603-.123.295-.123.296.18.368.148.036.259.011.328-.073.293-.353.59.047.964 1.302.075.25.136.578.136.728 0 .389.163.808.314.808.11 0 .12-.105.07-.71-.103-1.238.133-1.066.501.365.113.439.278.896.366 1.016.271.368.308.68.104.87-.1.093-.158.227-.133.307.058.187-.088.423-.192.31-.043-.046-.154-.292-.247-.546-.28-.767-.54-.458-.411.489.157 1.16.159 1.33.019 1.446-.206.171-.346.004-.47-.562-.06-.268-.179-.772-.263-1.119-.085-.347-.133-.665-.108-.706.026-.042.01-.158-.037-.258-.186-.41-.348-1.071-.439-1.791l-.14-1.12c-.049-.394-.117-.475-.332-.392-.18.069-.492.762-.476 1.058.008.13-.04.244-.115.272-.07.027-.129.136-.13.243-.01.707-.322.492-.374-.259-.016-.229-.092-.513-.17-.63-.094-.145-.135-.363-.122-.668.01-.25-.026-.536-.08-.637-.057-.106-.076-.335-.047-.549.037-.27-.009-.546-.17-1.045-.19-.586-.218-.806-.201-1.609.015-.781-.002-.925-.106-.9-1.035.243-1.066.238-1.519-.222-.266-.271-.426-.507-.426-.63 0-.337-.23-.575-.554-.575-.252 0-.307-.039-.414-.296-.335-.8-1.458-.072-1.24.805.052.21.13.685.173 1.058.125 1.092.18 1.408.35 1.978.089.296.183.925.21 1.397.026.472.099 1.01.162 1.197.39 1.927 1.002 5.33 1.41 7.068.289.351.295.486.064 1.236-.166.538-.17.592-.042.858.074.156.135.36.135.454 0 .093.076.318.169.5.222.435.448.404-2.949.413-.666.005-1.371.005-2.07.007 1.092.001 1.991.005 3.2.005 1.708 0 3.29-.001 4.773-.01-.74-.007-.89-.026-.671-.09.16-.046.373-.068.472-.049.11.021.182-.008.182-.076 0-.06.05-.262.11-.448.103-.311.099-.35-.06-.489-.282-.246-.173-.785.158-.785.353 0 1.191 1.327 1.048 1.658a.56.56 0 00-.056.225c.006.029-.355.047-.805.051 1.16-.008 2.265-.02 3.294-.044-.152-.061-.13-.228.064-.475.093-.118.17-.29.17-.382 0-.092.064-.367.142-.61.078-.243.15-.358.208-.354.097.006.157.342.157.965 0 .697.014.754.191.825l.008.004c.37-.01.733-.023 1.085-.038.194-.075.239-.226.239-.587 0-.488-.522-2.44-.975-3.651-.478-1.276-.381-1.428.312-.489.344.466.62.605.9.455.19-.102.61-.774.61-.978 0-.074.114-.35.253-.61.464-.87.282-2.117-.597-4.08-.543-1.215-.543-1.215-1.218-1.63-.371-.229-.722-.416-.78-.416-.057 0-.279-.151-.493-.337a4.398 4.398 0 00-1.639-.923c-.295-.096-.668-.29-.828-.43-.16-.142-.325-.257-.364-.257-.174 0-.52-.606-.565-.99-.027-.224.027-.563-.024-.668.172-.809.317-1.095.463-1.699.026-.802.18-1.541.174-2.612.16-1.179.296-2.217.334-3.202.109-.216-.284-.846-.517-.936-.07-.026-.126-.146-.126-.266 0-.124-.091-.303-.211-.415-.258-.239-.261-.279-.03-.466.183-.148.183-.148.03-.734-.206-.782-.262-.817-.326-.201-.066.625-.092.674-.357.674-.127 0-.207.05-.207.127 0 .195-.15.153-.496-.138a2.277 2.277 0 00-.609-.361c-.306-.1-.314-.132-.201-.698.079-.395-.145-.782-.905-1.565-.64-.66-.833-.975-.713-1.17.188-.303.723.159.723.623 0 .355.212.642.474.642.21 0 .563.28.645.513.1.282.12.002.03-.428-.178-.859-.992-1.714-1.504-1.58-.116.03-.403-.06-.777-.244-.912-.45-1.239-.346-1.239.394 0 .282-.062.531-.187.749-.173.3-.18.361-.085.779.057.249.16.865.227 1.369.078.578.202 1.089.337 1.384.205.446.448 1.517.365 1.6-.077.077-.312-.066-.36-.219-.105-.328-.39-.591-.641-.591-.137 0-.248-.044-.248-.098 0-.054-.101-.311-.225-.572-.312-.66-.363-1.156-.124-1.232.363-.115.432-.553.087-.553-.092 0-.28-.115-.416-.255-.145-.148-.336-.253-.46-.253-.3 0-.409-.247-.305-.696.046-.2.085-.528.086-.73.002-.301.048-.408.256-.59.35-.309.324-.486-.106-.704-.198-.1-.257-.219-.475-.433-.523-.514-.813-1.512-1.125-1.935-.445-.688-1.722-1.543-2.91-1.743zm-.064.397a.212.212 0 01.1.009c.52.173.658.213 1.21.546.274.166 1.092.814 1.298 1.086.257.338.633 1.064.727 1.215.077.252.167.373.247.64.149.337.08.383.485.482.312.076.479.224.248.353-.081.045-.14.184-.14.328 0 .274-.092.319-.254.124-.142-.172-.24-.092-.431.354-.222.518-.226.872-.007.674.28-.254.316-.221.682.644.139.33.219.414.433.457.262.052.263.053.21.485-.04.33-.013.524.111.814.174.405.424 2.077.325 2.176-.033.033-.178-.011-.323-.097-.469-.277-.673.233-.28.7.116.138.21.29.21.338 0 .047.084.27.186.495.135.298.193.617.215 1.172.082 2.164.071 2.255-.291 2.43a.512.512 0 00-.283.371 1.49 1.49 0 01-.114.36c-.165.267-.644.042-.644-.303 0-.109-.078-.351-.173-.538-.318-.623-.487-1.366-.537-2.362-.075-1.48-.307-3.084-.472-3.248-.124-.125-.2.33-.14.842.038.324.016.55-.074.765-.07.169-.129.464-.13.656-.006.7-.88 1.142-1.224.618-.14-.215-.151-.173.424-1.708.123-.326.242-.654.265-.73.051-.162-.351-.509-.516-.445-.062.023-.137.23-.167.46-.06.444-.414.718-.85.655-.304-.044-.162-.743.253-1.252a1.01 1.01 0 00.149-.381c.168-.941.329-1.388.51-1.414.201-.028.277-.28.19-.627-.068-.27-.2-.257-.314.03-.093.233-.093.233-.213-.049-.107-.252-.145-.275-.37-.226-.218.048-.251.031-.251-.126 0-.396.098-.468 1.332-.978.386-.16.784-1.095.784-1.842 0-.263-.436-.822-.64-.822-.141 0-.69.353-.779.501-.211.35-.565.18-.665-.32-.084-.417-.452-.424-.583-.012-.132.417-.72-.158-.72-.704 0-.119-.038-.318-.086-.443-.118-.312.562-2.076 1.077-2.153zm.105 2.293a.053.053 0 00-.046.015c-.03.031-.008.172.05.313.117.283.233.328.312.122.049-.126-.191-.438-.316-.45zm6.722 1.525a.284.284 0 01.081.003.958.958 0 01.287.115c.32.175.368.238.534.688.054.146.366.547.692.89 1.014 1.064 1.285 1.527.964 1.65-.069.026-.237-.032-.373-.13-.547-.39-.719-.215-.393.397.117.22.213.475.214.568.003.358.228 1.023.293.868.258-.616 1.314.452 1.314 1.33 0 .456.391.84.643.632.254-.21.782.065.89.465.112.416-.022 2.104-.182 2.297-.21.253-.928-.023-.928-.357 0-.221-.214-.466-.567-.65-.306-.159-.582-.464-.661-.732-.093-.316-.183-.398-.707-.644a4.176 4.176 0 01-.74-.447 3.665 3.665 0 00-.51-.354c-.256-.138-.46-.663-.589-1.515-.031-.207-.133-.481-.227-.608s-.206-.433-.248-.68a31.751 31.751 0 00-.33-1.744c-.09-.402-.085-.463.059-.622.11-.12.173-.351.202-.73.035-.459.107-.67.282-.69zm-4.953.761c.102.022.114.217-.04.483-.173.3-.498.451-.647.302-.11-.109-.063-.29.088-.344.081-.029.23-.151.332-.272.111-.133.205-.182.267-.169zm-1.817.181a.127.127 0 01.046.017.23.23 0 01.092.18c0 .142-.218.163-.3.03-.065-.106.051-.243.162-.227zm-.487.489c.215 0 .71.31.709.442-.002.145-.23.79-.385 1.091-.239.462-.318.297-.426-.886-.054-.6-.046-.648.102-.647zm9.681 2.37c.102 0 .105.142.007.38-.064.156-.075.158-.13.022-.072-.174-.001-.402.123-.403zm-9.35 0c.132 0 .155.297.05.67-.107.384-.349.316-.349-.097 0-.31.138-.573.3-.573zm10.027.659c.304-.01 1.02.61 1.02.882 0 .084-.029.15-.064.145-.178-.02-.835-.37-.898-.479-.04-.069-.148-.2-.24-.292-.201-.201-.17-.246.182-.256zm1.586 1.047c.245-.004.38.302.304.83-.078.535-.136.57-.532.323-.516-.324-.56-.572-.165-.945.148-.14.282-.206.393-.208zm-1.731.158c-.155-.002-.092.917.07 1.02.178.113.502.096.5-.027-.005-.463-.308-.99-.57-.993zm-3.472.632c.176-.006.573.587.573.885 0 .27-.144.21-.423-.177-.253-.348-.321-.613-.182-.699a.06.06 0 01.032-.009zm.972 1.154c.07-.009.14.034.23.123.184.184.167.298-.082.567-.423.456-.786-.026-.383-.509.094-.112.165-.172.235-.18zm-1.542.837c.174 0 .24.16.123.3-.13.157-.243.157-.303 0-.06-.155.028-.3.18-.3zm1.053.862c.057-.004.136.056.285.175.215.172.232.224.18.55-.07.43-.196.455-.495.1-.25-.297-.256-.33-.12-.625.059-.131.093-.197.15-.2zm-4.34.203c.167.006.296.406.445 1.264.288 1.655.28 1.563.137 1.782-.312.477-.72.162-.887-.684-.071-.363-.193-.683-.315-.83-.236-.283-.259-.608-.052-.723.082-.045.225-.228.318-.406.14-.268.254-.406.354-.403zm3.271.05c.036 0 .078.008.126.023.39.124 1.107 1.214.885 1.345-.288.17-.786.146-.857-.041-.355-.94-.405-1.327-.154-1.327zm6.192.866c.097.008.191.247.239.622.056.438-.028.462-.22.061-.158-.334-.182-.597-.061-.672a.071.071 0 01.042-.011zm-2.574 1.502c.072.009.166.087.166.162 0 .108-.147.101-.216-.01-.03-.05-.035-.111-.01-.136.015-.015.036-.02.06-.016zm2.018.497c.19 0 .385.21.309.335-.071.114-.139.108-.32-.03-.195-.148-.19-.305.01-.305zm-.112 1.049c.028.001.068.028.114.083.07.084.073.14.012.177-.05.03-.113-.006-.142-.08-.045-.117-.03-.183.016-.18zm-4.686 1.834c.01 0 .02.005.03.015.031.031.033.154.003.273-.061.244-.221.293-.219.067.002-.168.11-.36.186-.355zm.582.503c.327 0 .399.772.103 1.114-.16.183-.019.271.315.198.401-.088.362.507-.092 1.399-.19.372-.38.676-.422.676-.155 0-.328-.484-.28-.782.027-.163.003-.38-.052-.483-.055-.103-.112-.346-.127-.54a4.01 4.01 0 00-.085-.579c-.048-.185-.032-.222.096-.211.12.01.162-.057.184-.284.033-.35.145-.508.36-.508zm2.291.17c.12 0 .18.231.122.465-.064.255-.183.275-.244.042-.054-.208.018-.507.122-.507zm4.653 1.287c.183.01.497.175.834.526.166.173.493.379.761.478.908.338 1.222.625 1.66 1.519 1.022 2.084 1.231 3.316.737 4.333-.152.312-.275.605-.275.652 0 .113-.35.713-.462.792-.258.181-.485.007-1.125-.867a7.025 7.025 0 00-.652-.762c-.334-.319-1.018-1.658-1.116-2.185-.057-.312-.057-.313.357.067.618.568.466-.25-.19-1.02-.09-.106-.453-1.028-.453-1.151 0-.25.388.173.75.818.185.328.83.988.9.918.071-.071-.283-1.019-.51-1.36-.115-.174-.21-.365-.21-.424 0-.06-.115-.298-.253-.531-.138-.233-.251-.495-.252-.583 0-.088-.154-.326-.34-.528-.419-.454-.397-.703-.161-.692zm-4.448.224a.063.063 0 01.037 0c.015.006.03.015.047.032.028.027.037.158.022.29-.028.24-.028.241-.141.041-.083-.146-.046-.339.035-.363zm2.006 4.402c.235-.044.29.688.049 1.304-.1.257-.382.318-.466.101-.057-.15.187-1.218.306-1.336a.225.225 0 01.111-.07zm2.684 3.4c.116 0 .213.186.416.798.363 1.095.337 1.695-.057 1.301-.056-.056-.102-.21-.102-.342 0-.252-.252-.812-.52-1.155-.277-.355-.17-.602.263-.602zm1.317.118c.066-.012.139.027.214.119.327.404 1.124 3.241 1.08 3.846-.025.362-.025.362-.456.387-.556.033-.64-.072-.687-.852a4.248 4.248 0 00-.295-1.279c-.265-.685-.268-.745-.102-1.765.045-.278.136-.436.246-.456zm-4.767 2.096a.312.312 0 01.08.002c.222.033.4.285.281.398-.051.05-.154.03-.273-.05-.216-.147-.247-.33-.088-.35zm2.798 1.212c.072.005.147.172.147.349 0 .066-.057.12-.126.12-.139 0-.181-.38-.052-.46a.05.05 0 01.03-.009z"/></g><g><path d="M34.092 59.705a.187.187 0 00-.064.01c-.063.044 1.144 2.097 1.474 2.28.737.445.822.532.822.839 0 .137.047.324.105.417.2.32.488.063.488-.436 0-.819.399-1.01 1.396-.666.271.093.61.17.754.17.144 0 .409.04.588.09.179.05.342.074.363.054.054-.055-.612-.8-1.193-.904-.585-.19-.987-.405-1.603-.617 0 0-.64-.265-.77-.329-.475-.23-1.961-.913-2.36-.908zm6.742 3.153c-.109-.002-.124.064.02.223.11.12.147.275.13.53-.041.591-.007 1.04.127 1.72.042.213.554.507.75.431.114-.043.138-.159.127-.59-.014-.483.097-.906.238-.906.227 0 .363.314.365.839.001.307.045.71.097.897.08.286.119.6.15 1.206.013.256.255.087.302-.212.028-.174.13-.64.23-1.037.293-1.18.171-1.583-.6-1.978a3.175 3.175 0 01-.562-.386c-.442-.398-1.134-.732-1.374-.737zm-5.167.157c-.148-.017-.259.247-.3.726-.031.384-.017.525.054.502.249-.08.508-1.083.312-1.204a.159.159 0 00-.066-.024zm.831 1.16a.054.054 0 00-.027.001c-.047.014-.105.08-.183.194-.21.303-.165.457.148.51.273.044.3.008.229-.307-.058-.258-.104-.386-.167-.398zm-5.306 1.902a.052.052 0 00-.033.01c-.046.028-.082.173-.079.322.005.228.018.244.08.1.088-.206.099-.423.032-.432zm10.968 1.999c-.15 0-.258.332-.164.508.121.226.225.213.288-.036.056-.224-.01-.472-.124-.472zm-4.234 6.023c-.075.002-.181.061-.365.179-.35.223-.376.327-.115.456.44.218.865-.087.659-.472-.06-.11-.103-.165-.179-.163zm-2.122.592c-.015-.002-.028 0-.037.009-.026.026.002.128.063.225.12.19.203.222.275.105.047-.076-.193-.325-.301-.34z"/></g></svg>