<svg xmlns="http://www.w3.org/2000/svg" width="235.207" height="347.053" viewBox="0 0 62.232 91.825"><g style="display:inline"><path d="M65.912 192.574c1.866-5.408 1.436-6.708 3.639-8.163 3.348 1.599 3.494 2.232 7.988 4.66 5.643 3.05 9.3 6.767 9.3 6.767s1.412 11.596 1.968 15.024c.555 3.429.092 7.178.1 8.64-8.042 0-2.691.028-12.816.057-5.595-14.544-6.245-15.912-10.179-26.985" style="display:inline;fill:#333;stroke-width:.0846667" transform="translate(-39.003 -127.353)"/></g><g style="display:inline"><path d="M56.917 121.39c1.555-24.333-3.688-21.604-14.59-21.839-.012-4.932-.085-7.328-.048-7.754s.036-.793-.003-.818c-.04-.024-.034-.09.012-.145.054-.064.055-.146.004-.225-.06-2.178.06-4.442-.006-6.3-.128-.141-.082-.276.28-.825.932-1.136 1.933-1.858 2.694-2.729.767-1.672.968-3.4 1.528-4.876.454-1.205.718-2.667 1.152-3.63.156-.343.284-.674.284-.736 0-.322.894-1.056 1.45-.999.646.067 1.388-.399 1.641-.646.696-.326 1.73.033 2.517-.482.719-.515 1.386-.242 2.427-.31.501-.016.924-.53 1.387-.578 1.04-.105 1.358.047 1.855-.09.76-.21 1.39-.27 2.74.334.59.384 1.207.833 1.278.68.07-.154-.407-.911-1.014-1.75-.26-.36-.73-1.058-1.096-1.756 0 0-.524-.827-1.05-1.776-.535-.963-.538-1.047-.795-1.704-.11-.282-.137-.563-.231-.97-.103-.45-.187-.954-.187-1.123 0-.482-.118-.633-.453-.578-.525.085-.947-.238-.916-.7.017-.25 1.438-1.448.996-1.628 2.923-3.57 20.08-5.613 24.891-1.834 1.6 1.922 3.994 6.361 5.674 8.57 2.282 6.239 7.438 15.23 7.439 32.355 0 13.241.114 13.677-2.825 9.24S85.487 94.93 73.28 88.68c-1.61-2.062-3.768 2.852-5.34 4.382-6.774 6.591-14.995 26.398-15.322 25.88z" style="fill:#e6e6e6;stroke-width:.0846667" transform="translate(-42.21 -31.002)"/><path d="M267.578 481.34c-2.547-.01-5.355-.007-8.312.004-19.718.076-46.149.578-47.262 1.154-.48.248-1.491.453-2.248.455-1.894.007-1.413-.507-6.578 7.035-1.8 2.628-4.39 8.982-5.971 14.65l-1.672 5.991c-.879 3.15-.893 3.351-.967 13.12-.04 5.455-.233 11.36-.427 13.12-.854 5.87-1.032 12.691-.592 16.451.443 7.106 1.186 10.638 2.515 18.588.049 7.506 1.138 9.906 4.823 10.635 1.859.368 2.064.485 2.152 1.248.079.68.39.953 1.6 1.4 1.82.674 2.325 1.245 2.1 2.376-.326 1.625 2.577 2.469 4.015 1.167.424-.384.499-.736 1.156-.572 1.553.389 2.122.96 3.637 1.785 1.896.891 3.875 1.725 5.877 2.682 1.5 1.438 5.36 1.265 8.556-.385 1.533-.63 3.158-1.327 4.47-2.2 1.588-1.083 1.435-1.603 3.53-2.108 1.72-.416 1.761-.187 1.993-1.787.354-2.454.974-4.38 1.767-5.49-.135-2.223-.689-1.259-2.537-.92-3.958-.188-9.069-.016-13.22-1.747-.379-.465.182-1.15 1.367-1.763 2.376-1.969 4.209-2.72 6.093-2.721 3.145.288 7.133-.673 9.243-.807 3.553.39 6.527-.147 9.45.483.751.173 4.236.392 4.72.486 1.6.311.126 1.036-3.772 1.871-1.347.543-2.892 1.165-4.063 1.488-2.728.266-3.98-.768-4.384.948-.7 3.348.65 5.371 2.744 4.935 1.257-.262 1.391.106 1.098 2.992-.14 1.367-.244 2.916-.235 3.444.077 4.237-.208 5.515-1.357 6.11-2.31 1.194-3.434 11.315-1.588 14.302 1.8 2.913-.283 4.389-6.194 4.389-2.034 0-3.33.229-3.718-.104s-.772-.705-.721-1.398c.082-1.557.886-2.863 1.365-4.418.216-.88.628-2.078.914-2.663.442-.9.452-1.105.073-1.34a.64.64 0 0 0-.375-.097c-1.926.84-4.314 5.948-4.088 9.861 1.083 1.974 1.705.442 3.892 2.078.633.563 1.206 1.292.813 2.561-.202.65-.302 3.75-2.237 4.598-3.02 1.322-7.438 3.142-14.172-.922-1.482-.762-7.74-.692-4.884.258 3.238.5 3.773.422 5.713 1.447 3.322 2.061 4.46 2.72 6.086 5.834 1.063 2.545 2.546 4.165 1.02 5.105-1.63 1.004-2.522 2.818-3.196 4.463-1.675-.898-1.936-1.646-2.996-3.504-1.362-2.176-2.565-4.903-4.582-5.521l-1.442-.443c-.77-.237.946 2.067 1.387 2.808 1.996 3.215 2.255 6.706 2.822 8.55.471 1.493.593 3.363.918 4.852.448 2.05.496 2.88-.595 3.887-1.742 1.607-4.422 2.27-5.282 1.307-.244-.274-1.787-3.672-2.664-5.881s-1.04-3.25-1.416-3.996c-2.09-4.159-3.34-4.875-4.06-5.33-2.376-1.503-3.371-.445-2.106.85 1.293 1.322 2.443 1.77 3.64 3.99 1.162 3.286 1.723 4.345 2.604 7.568 1.334 3.746 1.177 6.636 1.19 9.166.087 1.214.043 5.037-.072 6.01-.116.972-.59.133-2.227 1.242-1.847 1.858-2.4 3.693-3.043 3.693-.505 0-.958-1.264-1.732-4.752-.352-1.584-.822-3.684-1.045-4.668-.224-.983-1.521-4.057-2.883-6.832s-2.678-5.614-2.924-6.312c-1.709-3.393-3.834-4.618-7.11-7.188-1.172-.908-2.703.363-1.53 1.213 1.565 1.38 2.097 2.048 3.218 3.467.792.892 1.442 1.822 1.442 2.066 0 .245.346.859.771 1.364s1.807 2.928 3.07 5.384c2.297 4.467 1.629 4.542 2.196 6.405.43 1.413.542 2.407.722 3.267.193.918.28 2.752-.384 3.278-.373.294-1.884 1.042-2.434 1.742-.97 1.232-1.092 1.911-1.324 2.771-.358 1.326-.392 2.054-.012 3.008-1.385-1.356-1.711-2.382-2.953-5.35-.776-2.023-1.047-2.856-2.328-5.275-.845-2.193-3.057-4.299-5.684-7.78-1.246-1.88-2.385-3.854-4.549-4.18-1.636-.225-2.064.106-2.914.56-1.716 1.838-2.703 4.956-3.134 6.297.061 1.894.323 3.489.716 5.164.842 2.317.323 3.92-.267 5.672-.57 1.693-1.322 3.685-1.436 4.513-.596 3.049-.92 4.892-1.816 7.996-2.563 3.59-6.154 2.607-7.881 5.295-1.259 2.865-3.842 7.533-4.932 9.764-3.365 6.471-7.384 12.49-10.687 19.08-.905 2.259-1.201 2.823-1.832 3.5-.62.666-.83 2.9-.272 2.9 4.838 34.386 30.055 25.577 37.946 24.24.739 0 2.519 1.307 3.373 9.436.157 1.496.446 4.16.642 5.92.665 5.973 3.24 23.967 3.22 29.762-.057 14.214-.775 21.72 2.858 38 0 .267 41.738-95.667 61.883-126.113 5.896-6.447 18.7 4.592 31.33 10.804 42.76 24.875 93.631 116.75 93.631 16.588s0-100.162-.662-99.76c-1.603-.253-3.518-2.837-5.738-3.449-12.236.673-57.096.556-53.996-29.148-.125-2.68-1.354-4.909-3.424-6.899-1.41-.009-5.842-.737-5.842-2.984-.404-1.865-2.018-3.931-3.521-5.37-1.871-1.243 2.059-4.438 2.99-7.751 1.836-6.532 1.79-6.248 1.44-8.776-.38-2.73-.168-3.372 1.2-3.646 2.062-.412 3.122-3.836 2.153-6.957l-1.313-4.23c-.488-1.573-1.35-3.478-1.955-4.32-2.093-2.915-2.758-4.507-4.965-11.907-.708-2.376-1.649-5.184-2.09-6.24a103 103 0 0 1-1.546-4c-.411-1.144-1.418-3.498-2.237-5.23-.818-1.734-1.643-3.967-1.832-4.962-.188-.995-.958-3.105-1.71-4.69-.754-1.583-1.736-3.756-2.184-4.83-3.102-7.431-7.73-13.986-13.97-19.788-1.495-1.392-2.767-2.734-2.827-2.985-.06-.253-5.371-.377-13.014-.404zm-1.607 95.953c4.414.185 7.51 1.511 6.48 3.256-1.438 1.374-2.831 2.013-4.07 2.369-6.173 1.761-10.615-.139-7.463-3.602 1.722-1.381 3.24-2.086 5.053-2.023m18.506 2.219c1.935-.004 3.765.905 4.398 2.166.791 1.67.276 4.225-.312 5.377-.377 1.257-.694 2.373-1.448 3.65-1.06 2.182-2.99 3.463-5.183 6.336-1.69 1.65-2.468 3.198-4.041 4.836-.59.502-1.39 1.37-1.776 1.928-1.062 1.088-2.63 3.085-2.546 5.098-.217 3.425.626 4.456-2.725 5.043-2.833.992-4.149 1.2-5.403 3.07-.916.853-3.194.85-4.82-.01-1.427-.754-1.494-1.316-.355-2.993.464-.683.917-1.873 1.004-2.644.577-1.546 1.145-1.28 1.24-3.043.018-1.422-.332-1.87-.992-2.498-.954-.906-3.382-3.636-3.873-4.97-.464-1.26-.725-3.433-2.317-4.647-1.824-1.392-1.972-2.863-.58-5.805.458-.968.644-2.113.832-2.428.316-.528.615-.937 2.018-.937 1.13.187 1.466.116 2.328.547 1.187.596 2.262 1.263 3.428 1.476.74.033 2.208.21 3.261.395 1.489.126 2.843-.412 4.334-.782 1.39-.16 2.39-1.06 3.434-1.75.69-.406 1.296-1.183 1.789-2.296.94-2.123 1.58-2.357 3.15-4.06 0 0 3.22-1.056 5.155-1.06zm-57.918 3.435c2.832.092 4.451 1.406 5.298 1.977 1.276.86-1.086 2.116-2.18 2.699-1.068.57-3.192.998-4.872 1.115-1.742.122-5.046-1.9-4.963-2.33.154-.799 2.774-3.171 5.428-3.42q.682-.062 1.289-.04m9.236 7.524c-.143-.019-.303.034-.342.03-.537-.046-1.573.906-2.148 1.636-.646.788-1.463 1.283-2.303 1.892-.322.353-1.243.75-.762 1.414.313.432 3.076-1.482 4.037-2.392.962-.91 1.702-1.529 1.762-2.184.026-.287-.1-.378-.244-.396m81.045 7.761c.228.032.355.207.344.582-.03.971-.64 2.194-1.428 3.414-1.977 2.239-2.613 3.989-2.704 5.276-.157 2.123-.693 6.957-1.152 7.445-1.127 1.66-1.654 3.871-3.304 5.125-1.337.936-1.893.617-1.06-.61.904-1.333 2.568-5.462 3.23-8.019 1.509-5.007-2.051-.161-2.996 2.108-.372 2.043-1.49 5.557-2.125 6.676-1.206 2.252-2.5 4.05-4.211 5.925-.51 1.07-1.373 1.742-1.373 1.069 0-.19.72-1.625 1.6-3.186 1.641-2.923 1.988-3.648 4.025-6.898-1.74-1.907-4.433 1.89-5.616 3.707-2.102 3.99-7.217 7.683-10.248 12.023-1.019 1.056-2.088 2.387-2.375 2.96-.924 1.842-2.572.188-1.819-1.793 1.837-4.83 8.288-12.52 11.294-16.287 3.182-3.987 5.991-7.65 9.287-11.153.526-.56 1.84-1.825 3.288-3.017 1.573-1.295 2.264-2.689 3.546-3.407 1.516-.85 3.113-2.034 3.797-1.94m-61.912 7.352c.692.015 1.327.171 1.693.492.854.75.726 2.51-.248 3.412-.786.729-1.311.976-3.695 1.737-2.558.816-3.817.342-3.817-1.438 0-.997 1.4-1.895 2.135-2.453.35-.266.526-.398.992-.758.475-.652 1.786-1.018 2.94-.992m-.532 15.924c.642 0 1.184.69 1.184 1.504 0 .795-.598.97-1.215.353-.514-.514-.491-1.857.031-1.857m11.575 0c.602 0 1.186 1.085.935 1.738-.285.744-.74.612-1.093-.318-.426-1.12-.392-1.42.158-1.42m-8.16.697c.345-.016.65.418.65 1.065 0 .419-.144.85-.32.959-.44.271-1.075-1.453-.68-1.848a.54.54 0 0 1 .35-.176m12.92 6.217c.775.024 1.49.5 1.49 1.137 0 .387-1.284.287-2.35-.184-.91-.403-.91-.403.088-.816.248-.103.513-.145.771-.137m-19.276.596c1.014-.001 1.861.464 2.846.697.44.039 1.921.253 3.29.476 2.17.354 2.668.342 3.868-.103 1.495-.554 2.073-.538 4.04-.243 1.65.123 2.415.486 3.362.928 0 .256-.36.552-.8.655-1.141 1.026-2.184-.04-3.807.478-1.97.941-3.389.53-5.096.683-2.163-.21-1.958-.768-3.722-1.017-1.767-.596-1.768-.622-3.262-.656-.89-.017-1.785-.133-1.987-.258-.984-.608.068-1.526 1.268-1.64zm-20.435 7.865c.288-.015.564.139.882.842 1.688 3.722 1.608 5.345-.314 6.34-2.135 1.103-3.907.271-4.285-2.014-.631-3.817 1.192-4.118 2.758-4.996.37.027.67-.157.959-.172m21.168 4.267c.43-.019.814-.014 1.132.01 2.679.2 4.253.474 6.45.78 2.339.325 3.857.745 5.539 1.328 4.418 2.137 9.54 4.26 13.474 5.947 3.113 1.86 5.609 2.992 10.123 5.223 3.62 2.078 8.73 5.546 11.49 7.851 3.345 2.663 7.393 5.44 11.737 8.873 6.443 5.093 9.19 8.044 16.16 12.075 2.129 1.424 5.328 3.61 7.57 5.486 2.71 2.083 4.396 4.56 1.397 15.346-.367 1.32-1.127 5.064-1.69 8.32s-1.276 6.928-1.586 8.16-1.023 5.12-1.584 8.64c-.462 3.766-.875 6.417-4.324 3.298-2.54-2.559-2.852-3.563-5.744-6.022-5.294-4.503-5.414-4.337-12.228-9.353-3.594-2.646-5.395-4.405-8.235-5.841-2.84-1.437-7.167-1.542-11.912-3.138-8.018-2.696-16.376-6.77-23.321-13.588-1.31-1.285-4.111 1.12-6.245 1.652-3.872 2.088-6.313 3.39-9.836 6.643-1.238 1.331-2.736 1.874-4.737-.13-3.201-3.208-2.08-5.996 3.752-9.317 2.014-1.147 5.371-4.286 5.877-5.496.47-1.122 1.135-3.896-.31-5.227-.857-.789-3.738-.383-4.684-.033-2.655.982-4.709 1.394-6.838 2.514-3.027 1.591-4.485 1.76-5.629-2.092-1.843-6.21.662-8.347 10.973-9.363 5.646-.557 8.376-3.747 5.787-6.76-.787-.917-3.524-1.691-4.621-1.309-.538.188-3.095.436-5.682.551-6.607-.087-6.5 3.747-8.802.514.24-8.596 3.283-10.216 9.423-10.852.645-.067 6.33.503 11.165.752 5.219.268 10.302-1.036 9.445-2.424-.83-1.342-5.358-2.996-9.649-3.525-1.075-.133-2.427-.478-3.007-.768-1.501-.749-3.474-.652-5.983.293-1.805.678-3.999 1.308-5.883 2.264-2.273 1.142-2.662.9-2.443-1.52.35-3.867 2.581-6.06 8.914-8.756 1.572-.669 3.274-.948 4.565-1.005zm-39.813 24.864c.258.03.645.952.643 1.494-.005 1.256-.868 3.93-1.489 4.617-1.479 1.635-3.107-.839-2.037-3.436.677-1.642 2.315-2.74 2.883-2.675m-9.93.554c1.195.14 1.668 1.922.274 4.078-.786 1.23-.83 3.163-2.213 3.14-1.7-.03-1.43-.796-1.67-1.954-.265-1.275.717-3.393 1.64-4.316.735-.735 1.426-1.011 1.97-.948" style="fill:#6b6b6b;stroke-width:.32" transform="matrix(.26458 0 0 .26458 -39.003 -127.353)"/><path d="M255.979 481.348c-6.963-.001-25.312 1.045-27.924 1.117-.754-.466-10.429-.097-18.147.691-1.851.19-1.836.175-6.14 6.598-4.796 7.157-8.751 20.827-8.723 30.154.179 9.863-.554 18.14-1.227 29.77.993 9.597 1.456 20.858 3.97 30.484.904 1.786.992 1.84 3.519 2.156 1.686.211 1.84.298 2.011 1.153.128.64.418.974.944 1.082 2.357 1.07 2.87.629 3.965.375 1.617-.655 3.934.915 6.086 1.611.603.27 1.04 1.2 1.74 1.763.531.309 1.394.715 2.23.931.834.217 1.641.244 2.06-.203.698-.747-2.058-2.307-2.837-3.137.317-.85 1.076-.721 2.26-1.998 1.57-.87 3.11-1.62 3.54-1.825 1.014-.48 1.102-1.744.844-1.69l-1.298.048c-.358.089-1.422.423-2.348.95-.927.529-1.373.624-2.242 1.731-1.832 1.19-2.546.527-1.356-.95.285-.82 3.212-2.134 4.184-2.665.75-.41 1.315-.67 2.357-1.603 1.718-1.614 3.802-2.795 5.649-4.176 1.31-1.037 1.642-1.087 8.3-1.266 2.062.239 4.206-.749 5.942-.738.662.107 2.714.254 4.562.326 5.12.2 13.402.745 15.258 1.004 2.251.125 3.21-.121 4.924.22 0 1.186-2.526 1.187-4.174 1.163-1.672-.025-3.887-.159-6.57 1.115-1.355.644-2.932 1.17-3.506 1.17s-1.387.266-1.807.592c-1.648 1.28-4.646 2.373-5.398 1.97-.876-.468-1.1-.26-.838.782.176.7.382.816 1.467.816 1.273 0 2.566.905 2.566 1.797 0 .219.4.684.89 1.033.491.35 1.094 1.013 1.34 1.475.481.898 1.575.906 3.044.023.469-.282 1.34-.313 3.205-.113 1.408.151 4.24.38 6.295.51 4.227.265 4.634.453 3.365 1.545-1.83 1.574 1.984 1.282 4.799-.368 1.124-.659 3.775-3.975 4.527-5.664.326-.731-4.02 1.122-5.621 2.397-.218.173-.596.24-.838.146-.242-.093-1.977.093-3.855.412-3.41.58-5.918.43-7.212-.398s-1.373-2.331.074-4.455c2.895-4.247 12.078-3.046 15.302-.363.758.712 1.61 1.24 2.529.666.506-.316.544-1.996-.762-3.094-.352-.296-4.355-1.634-2.267-2.395 5.404-.574 10.097 1.284 12.568 1.887 1.977.561 3.598 1.023 5.576 2.09 1.206.098 2.838 2.086 2.498 4.799.035 1.485.144 2.445-.15 3.707-.413 2.043-1.369 3.92-2.951 5.65-.562 1.066-1.904 2.768-3.315 3.91-3.203 1.985-5.303 5.454-8.762 7.666-.298.456-1.174 1.487-1.945 2.291-2.16 2.855.633 3.608 2.487 4.987 2.18.314 2.168 9.947-.018 12.687-.75.94-1.363 1.84-1.363 2 0 1.11-2.54-.635-3.944-2.709-2.195-1.466-3.08-3.102-4.377-4.879 0-.684-.952-.52-1.619.28-.808.968-.808.966.703 3.109 1.653 2.343 1.54 3.023-.449 2.725-1.14-.171-1.471-.093-1.973.46-1.79.208-2.223-.499-3.498-.318-.553.297-.937.316-1.392.073-.346-.185-.94-.256-1.32-.157-.82.215-.886-.107-.18-.886.852-.942-.271-3.807-1.492-3.807-.831 0-.944.346-.579 1.777.178.695.4 1.58.495 1.967.394 1.615-.946 2.623-2.836 2.133-.924-.24-2.017-.436-2.43-.436s-1.012-.14-1.33-.31c-1.348.031-1.775.894-3.379.31-.697-.77-1.04-.792-2.342-.142-1.705.85-3.258.976-3.262.263-.002-.33-.094-1.357-.205-2.281-.228-1.902.936-2.335 3.038-1.129.91.522.993.522 1.57 0 1.153-1.043 2.845-.73 3.506.649.575 1.2.574 1.2.734.164.173-1.121 2.836-5.49 3.36-5.512 1.047-.045 4.17-4.353 4.52-6.236.62-3.32-1.045-5.071-1.835-1.932-.2.795-.49 1.524-.643 1.619-.745.46-7.66 2.046-8.947 2.05-1.167.005-1.622.178-2.24.848-.97 1.052-2.5 1.72-3.943 1.72-2.16 0-3.378.773-3.387 2.152-.003.391-.293 1.183-.645 1.76-.412 2.003.08 2.423-.705 3.447-1.61 1.363-2.107 5.187-4.722 4.644-2.148-.681-5.509-.282-3.8 2.887 2.07 3.836 3.095 5.337 3.76 7.617.381 1.303.41 2.515.538 3.46.436 3.258-4.314 5.307-6.295 3.935-1.982-1.373-4.836-6.235-5.992-7.987-.944-1.429-.447 1.643.425 5.174.848 3.43 1.89 8.557 1.801 11.043s-1.486 3.7-3.482 3.46c-2.225-.265-3.934-3.148-5.354-4.835-.425-.505-1.48-2.42-1.535-2.42s.56 3.194.56 5.262c-.396 3.62-.156 6.953-.164 10.527.033 2.226-.226 6.04-1.77 7.393-2.686 2.355-5.684-1.263-7.015-8.465-1.093-5.916-3.164-10.43-3.963-12.004-1.191-2.869-4.253-7.51-5.095-7.51-.812 0 1.302 3.633 3.832 7.819 1.322 2.345 1.875 5.254 2.726 7.894.521 1.802.524 3.13 1.03 4.348.563 1.545 1.182 3.138.343 5.746-.36 1.136-.495 2.065-1.107 3.02-.612.954-1.222 1.27-2.602 1.376-1.379.107-2.65-.046-3.687-1.021-1.987-3.39-1.993-2.788-3.5-6.139-.925-1.942-1.83-3.619-2.746-5.787s-3.414-4.904-4.405-6.258c-.748-.988-2.691-2.806-3.136-3.31-2.718-.608-4.81 2.277-5.106 5.511.326 3.113 1.823 5.085.713 8.532-1.09 2.94-1.602 5.566-1.656 7.812-.387 2.288-.507 9.28-5.379 10.192-5.149.382-5.902 5.977-10.353 12.232-2.439 4.702-4.668 8.337-7.155 13.549-2.264 4.744-2.234 6.361-6.207 10.863.098 9.626-.096 24.275-.316 34.092 1.608 10.298.76 16.987 1.611 21.695 10.414-.47 20.228-17.49 23.623-17.754 3.014-4.54 13.557-13.293 14.3-12.09.49.79 2.841 23.144 2.81 26.696.03 6.11.992 12.192 1.003 18.306.226 8.982.604 27.617 2.092 37.295-.183.298 2.082-.061 2.156.159l-.002.002c.1.293 1.29.4 4.467.4 15.853-.533 54.791.169 83.99-.045 12.84-.034 11.984.085 11.145-1.56-.35-.688-.639-1.538-.639-1.891s-.23-1.125-.511-1.715c-.479-1.004-.469-1.21.16-3.244.875-2.834.85-3.342-.24-4.672-1.543-6.568-3.855-19.429-5.332-26.713-.238-.704-.514-2.74-.614-4.523-.1-1.784-.455-4.162-.789-5.282-.642-2.153-.853-3.346-1.326-7.474-.161-1.408-.455-3.208-.652-4-.825-3.312 3.421-6.067 4.685-3.041.406.971.615 1.119 1.567 1.119 1.227 0 2.093.898 2.093 2.17 0 .467.603 1.36 1.61 2.383 1.713 1.74 1.828 1.757 5.74.838.396-.093.46.451.4 3.404-.06 3.033.042 3.864.76 6.08.612 1.886.784 2.933.645 3.951-.11.81-.036 1.674.18 2.076.202.38.336 1.462.298 2.405-.046 1.155.105 1.976.463 2.523.292.446.58 1.52.64 2.385.197 2.836 1.375 3.652 1.413.976.006-.401.229-.814.494-.916.28-.107.462-.537.436-1.029-.062-1.118 1.116-3.738 1.798-4 .811-.311 1.07-.007 1.254 1.482.093.744.33 2.649.53 4.233.342 2.72.955 5.222 1.66 6.77.173.379.235.818.138.974s.086 1.358.407 2.67.768 3.216.992 4.23c.472 2.14 1 2.77 1.78 2.123.528-.439.52-1.08-.073-5.466-.485-3.58.495-4.745 1.555-1.848.35.96.77 1.89.931 2.064.394.426.948-.465.729-1.171-.094-.303.123-.808.502-1.16.77-.719.63-1.898-.393-3.29-.333-.453-.956-2.18-1.383-3.84-1.393-5.41-2.284-6.058-1.894-1.38.19 2.287.15 2.683-.264 2.683-.573 0-1.187-1.581-1.187-3.05 0-.57-.232-1.808-.514-2.752-1.418-4.746-2.536-6.256-3.645-4.92-.262.316-.68.409-1.24.275-1.143-.274-1.144-.277-.682-1.393.349-.84.322-1.167-.177-2.275-.474-1.051-.504-1.341-.158-1.555 1.279-.79-3.195-11.541-4.99-11.992-.481-.12-.755-.424-.755-.834 0-1.894-.89-2.934-1.88-2.201-.517.382-1.079.607-1.249.502-.48-.297-.747-2.63-.404-3.531.512-1.348-1.037-2.976-2.142-2.252-1.632 1.069-2.492-1.543-1.561-4.744.284-.977.516-2.068.516-2.424 0-1.077.927-1.742 2.15-1.543 1.57.255 2.196-1.984.986-3.526-.183-.233-.152-.602.084-.98.663-1.061-.43-4.11-1.709-4.766a12.7 12.7 0 0 1-1.935-1.283c-1.6-1.336-2.364-1-1.152.508.802.998 1.06 1.684 1.232 3.28.12 1.109.393 2.34.61 2.734.32.584.303.892-.096 1.664-.27.52-.49 1.113-.49 1.314s-.278.756-.616 1.23c-.338.475-.66 1.361-.719 1.97-.088.924-.223 1.093-.814 1.03-.526-.054-.84.207-1.225 1.016-.64 1.348-4.664 4.979-5.52 4.979q-1.45 0-1.138-2.1c.188-1.26.188-1.26-.814-.14-.552.616-1.292 1.66-1.645 2.32-.395.74-.875 1.199-1.25 1.199-.334 0-.82.082-1.08.182-.274.105-.807-.177-1.264-.67-.79-.852-.79-.851-1.472.107-2.055 2.886-5.102 1.098-5.62-3.299-.103-.88-.468-1.96-.812-2.4-1.706-2.183-2.98-4.996-3.215-7.104-.212-1.906-.368-2.267-1.398-3.238-.637-.6-1.158-1.31-1.158-1.576 0-.265-.361-1.296-.801-2.291-.9-2.034-1.005-3.572-.309-4.492.259-.342.469-.876.469-1.188s.283-.719.629-.904.779-.91.96-1.611c.183-.701.475-1.832.651-2.512.486-1.879.415-4.524-.12-4.524-.794 0-1.198.88-1.62 3.516-.296 1.848-.62 2.815-1.13 3.358-.395.419-.656.95-.579 1.181.211.634-1.338 1.764-1.674 1.22-.299-.483-.107-3.293.375-5.507.385-1.767-.173-8.772-.885-11.115-.7-2.31-.606-4.266.194-4.012.808.257.828-.276.039-1.027-.82-.78-2.28-5.28-2.28-7.026 0-2.432 1.766-9.018 5.59-9.283 4.493.758 9.319 3.989 11.002 6.588 1.18 1.6 2.276 5.37 4.25 7.313.824.81 1.05 1.256 1.797 1.636 1.625.827 1.726 1.495.4 2.658-.786.69-.96 1.096-.966 2.233a15 15 0 0 1-.326 2.762c-.392 1.696.017 2.627 1.154 2.627.466 0 1.19.398 1.738.959.516.528 1.223.96 1.57.96 1.305 0 1.045 1.657-.328 2.092-.902.287-.712 2.16.471 4.659.466.984.848 1.957.848 2.16s.422.369.937.369c.949 0 2.029.997 2.422 2.236.184.578 1.071 1.118 1.361.828.316-.316-.604-4.364-1.376-6.05-.51-1.115-.981-3.045-1.276-5.231-.256-1.905-.643-4.233-.857-5.174-.36-1.578-.335-1.806.32-2.943q.71-1.234.709-2.832c0-2.796 1.233-3.187 4.682-1.489 1.414.697 2.499 1.038 2.935.924 1.935-.506 5.013 2.726 5.688 5.971.338 1.627.262 2.685-.116 1.617-.31-.878-1.644-1.937-2.437-1.937-.992 0-1.793-1.085-1.793-2.428 0-1.754-2.023-3.498-2.73-2.354-.455.736.27 1.928 2.691 4.42 2.876 2.963 3.72 4.423 3.422 5.916-.428 2.14-.395 2.257.762 2.637.606.2 1.641.814 2.298 1.365 1.312 1.102 1.877 1.26 1.877.524 0-.296.3-.48.782-.48 1.002 0 1.1-.187 1.347-2.55.243-2.326.455-2.196 1.23.762.581 2.213.581 2.213-.109 2.772-.874.708-.864.86.112 1.763.455.422.798 1.097.798 1.567 0 .454.215.908.475 1.008.883.338 2.366 2.718 1.955 3.537-.144 3.723-.657 7.646-1.262 12.101.025 4.048-.558 6.842-.658 9.873-.551 2.28-1.099 3.363-1.748 6.42.192.397-.01 1.679.09 2.524.171 1.45 1.478 3.744 2.135 3.744.149 0 .768.434 1.375.967.606.532 2.015 1.264 3.13 1.627 2.462.798 4.245 1.803 6.196 3.492.81.7 1.649 1.273 1.865 1.273.217 0 1.543.705 2.945 1.569 2.55 1.569 2.55 1.57 4.604 6.16 3.321 7.421 4.011 12.134 2.258 15.42-.528.99-.96 2.028-.96 2.308 0 .77-1.583 3.312-2.304 3.697-1.06.568-2.1.042-3.4-1.718-2.622-3.55-2.988-2.977-1.182 1.845 1.715 4.578 3.685 11.956 3.686 13.8 0 1.852-.31 2.246-1.92 2.44-.616.075 14.991-.004 30.793.022 14.365.026 22.154 0 25.133-.191.232-4.352.255-8.358.234-19.158-.233-86.938.078-111.996.139-126.223-.024-2.99.064-5.156.072-11.719.034-3.014.112-2.244-.858-2.926-.239.092-.479.386-.533.653-.05.244-5.476 8.335-6.648 8.437-1.172.103-2.332.084-2.332-.156 1.893-3.688 6.08-9.156 8.486-12.264.74-.584 1.627-1.035 1.785-1.576-.026-2.714.066-8.404.02-12.262-.08-11.2-.08-11.199-.803-11.199-1.753 0-1.319.35-2.443 1.049-1.531.951-2.248 3.246-2.248 3.246-1.65 1.608-6.164 10.037-6.164 10.822 0 .75-.558 1.005-2.72 1.243-2.02.754-1.249-1.197-1.118-2.319.395-4.313 6.93-13.912 9.992-17.906.532-.502.734-1.176 1.348-1.727.17-1.956 1.097-4.144.898-6.712-.038-.01-.501-.309-1.03-.663-1.922-1.275-4.393-2.058-6.6-3.941-1.032-1.115-2.08-1.536-6.038-3.752-1.941-.612-3.943-1.694-6.08-2.025-3.37-.622-9.95-2.108-14.55-5.5-1.912-1.58-2.81-2.06-5.753-3.077-2.234-.772-3.1-.983-7.283-1.777-1.88-.364-3.904-2.237-6.064-3.54-2.288-1.077-3.694-4.044-3.375-7.126.263-2.726-.555-4.867-2.08-7.04-1.265-1.15-1.607-.36-2.795-.849-1.272-3.676-2.607-6.88-4.926-10.02-1.333-1.37-1.416-2.128-.555-5.107 1.204-4.166 1.422-5.573 1.34-8.662-.092-3.46.005-3.71 1.613-4.093 3.396-.81 2.28-9.668-2-15.885-.788-1.144-1.585-2.511-1.771-3.04-4.044-11.458-8.52-25.59-14.362-38.241-3.065-7.265-8.553-14.863-14.72-20.38-1.17-1.046-1.95-1.984-1.856-2.232.136-.353-4.07-.427-24.467-.427zm-26.293 98.734c-1.318-.041-2.637.003-2.938.164-1.296.694-.58 2.123.834 1.934 2.282-.305 4.358 1.983 5.076 2.207 1.004.313.886 1.194.008 1.974-.844.75-3.202 2.18-5.523 2.768-1.725.437-3.092.54-3.85.358-1.346-.323-1.504.661-.984 1.392.833 1.171 2.125 1.522 3.03 1.388.818-.12 2.507-1.103 3.855-1.431 1.421-.346 2.015-.436 3.283-1.12 1.51-.813 3.266-2.278 3.822-2.566s1.3-.521 1.654-.521c.78 0 1.149-.652 1.448-2.56.474-3.03.288-3.483-1.202-2.944-.99.358-4.616-.094-5.59-.695-.29-.18-1.606-.307-2.923-.348zm78.814 9.582c-.043 1.802-.95 3.764-1.912 4.133-.601.23-1.412-.119-1.843-.406-.64-.428-.629-3.145-.796-4.798-.102-1.004-.305-2.5.102-2.908.407-.409 1.195.322 1.929.323.449 0 1.552-.054 1.924-.684.333-.565.424-.563.714-.58.29-.016-.084 3.48-.118 4.92m8.582 1.719c1.273.064 2.51.703 3.096 1.504 1.187 1.695.776 4.919.674 7.672-.106 2.817-1.31 5.334-2.815 7.697-1.567 2.41-3.322 4.9-5.058 7.254-2.286 4.42-7.092 10.02-9.717 11.322-1.888.936-2.568 1.549-3.858 3.477a30 30 0 0 1-2.396 3.039c-4.926 5.35-6.696 6.984-7.506 6.013-.904-.606-1.23-.742-2.746-1.533-.681-.312-3.016-2.485-3.016-3.066 0-1.667 9.864-17.506 11.885-19.084 5.131-4.397 6.399-10.565 10.834-13.043 2.685-2.709 3.682-3.58 5.422-5.953 2.026-2.491 2.294-4.466 5.201-5.3m-45.914 35.81q.365-.019.719.006c1.57.111 2.892.86 2.892 1.977 0 .67-1.756 1.613-3.002 1.613-.527 0-1.012.29-1.35.805-.289.442-.87.889-1.288.994-.984.247-2.11 1.263-1.083 2.484.386 1.864 1.696 2.638 3.44 2.647 4.889.022 7.79 2.353 3.524 2.832-2.403.509-4.11.709-6.067.817-.477.25-.95.823.608 1.568 2.17.93 4.048 2.326 6.072 2.75 5.354 2.362 7.628 3.626 11.16 5.395 4.484 2.88 7.16 4.554 9.573 5.98 5.077 3.546 11.44 7.703 17.52 11.562 6.421 5.337 11.71 9.913 19.071 13.688.305 0 5.614 3.863 6.684 4.863 3.693 1.41 2.231 2.843 1.07 7.457-1.993 7.735-3.552 16.075-5.145 24.318-1.554 9.534-2.008 10.918-4.066 19.754-3.167-2.323-3.61-2.72-5.791-4.8-4.362-4.082-6.89-5.806-10.082-8.487-1.654-2.248-3.895-3.113-6.576-5.207-4.28-3.343-6.076-4.218-9.672-6.678-8.174-3.053-13.676-3.997-19.887-7.16-4.13-1.87-9.05-5.237-12.861-7.353-1.067-.593-2.386-1.045-3.399-1.051s-1.805.256-3.267.887c-2.037.879-4.68 3.118-6.377 5.046s-2.862 1.75-4.205 2.452c-1.237.646-3.102-.73-3.102-.73-4.201-4.7-3.857-9.367-1.021-10.42.307-.115 1.232-.65 2.054-1.19.823-.54 2.076-1.33 2.784-1.756 1.703-1.024 4.775-4.18 4.853-4.986.247-2.548-.96-2.984-3.762-2.471-1.64.3-2.134.312-3.931 1.031-3.273 1.31-4.289 2.377-7.465 1.934-2.72-.38-4.78-7.496-3.002-10.055.806-1.16 1.2-2.36.578-2.523-2.875-.752-3.121-10.22-.441-17.01.953-2.415 1.097-3.105.937-4.48-.387-3.33 1.9-8.654 4.057-9.44.497-.181 1.337-.692 1.865-1.137.528-.444 1.154-.808 1.389-.808s1.626-.52 3.094-1.155c3.585-1.55 8.013-1.483 11.234-.59 1.11.308 2.727.35 3.072.098 1.14-.834-3.336-2.993-8.12-4.783-1.21-.452-2.083-1.053-2.767-1.904-.619-.771-1.497-1.409-2.31-1.68-1.27-.424-2.233-2.468-1.625-3.451.453-.734 3.64-1.033 5.092-.479 1.426.52 2.916.247 4.23.604 1.971 1.007 2.729.806 5.317-.24 2.371-.96 2.192-.477 3.083-.484.86-.007 1.715.43 3.551-.5a5.4 5.4 0 0 1 2.141-.553zm-19.82 24.254c-2.243-.055-4.987.73-7.202 1.356-2.488.68-3.219 1.627-.724 1.64 1.897.353 4.883.378 6.512.682 6.277 1.16 14.399.284 12.396-1.338-1.44-.783-3.033-.641-4.578-1.045-2.546-.83-4.676-1.262-6.404-1.295m-2.85 16.44c-2.223.015-4.482.348-6.533.726-1.946.048-4.215.687-4.791 1.28-1.486 1.53 1.219 3.574 1.219 3.574.065.198.612.435 1.214.525s2.461-.017 4.133-.238 4.304-.562 5.848-.758c4.3-.545 5.64-3.323 2.818-4.732-1.254-.28-2.574-.386-3.908-.377m22.068 51.576c-.232-.05-.589.135-1.01.637-.382.456-.947.92-1.255 1.029-.57.203-.745.888-.332 1.3.563.564 1.792-.01 2.447-1.144.58-1.003.538-1.739.15-1.822m-6.869.683c-.417-.062-.857.459-.613.854.314.508 1.137.425 1.137-.113 0-.254-.157-.558-.348-.676a.5.5 0 0 0-.176-.065m34.754 10.803c-.472 0-.739.862-.47 1.52.21.514.25.507.492-.08.37-.903.363-1.44-.022-1.44m8.55 6.451c-.42.008-.927.258-1.483.784-1.494 1.41-1.33 2.348.623 3.572 1.493.936 1.716.801 2.007-1.223.287-1.993-.221-3.15-1.146-3.133m-17.839 13.766c-.214.012-.344.262-.57.758-.51 1.118-.486 1.238.457 2.36 1.13 1.342 1.61 1.246 1.869-.376.197-1.232.133-1.427-.68-2.078-.563-.451-.862-.676-1.076-.664m19.361 4.23a.26.26 0 0 0-.158.043c-.458.284-.367 1.278.235 2.54.722 1.514 1.038 1.425.828-.23-.18-1.418-.537-2.322-.905-2.352m-9.726 5.676c-.09-.011-.171.005-.229.063-.094.094-.077.324.04.511.26.422.814.45.814.041 0-.283-.353-.58-.625-.615m7.203 5.844c-.177-.01-.23.24-.06.68.108.282.349.42.535.304.232-.143.219-.352-.043-.668-.175-.21-.326-.31-.432-.316m11.646 44.674c-1.633 0-2.04.934-.99 2.277 1.012 1.295 1.965 3.412 1.965 4.365 0 .5.174 1.082.385 1.293 1.489 1.49 1.588-.778.215-4.918-.768-2.314-1.135-3.017-1.575-3.017m-13.039 8.369c-.6.073-.481.769.334 1.322.45.305.839.376 1.034.19.448-.428-.226-1.38-1.067-1.504a1.2 1.2 0 0 0-.3-.008zm1.897 2.512c-1.254 0-1.666 2.038-.6 2.968.602.525.618.673.23 1.848-.23.702-.42 1.465-.42 1.695 0 .255-.268.367-.685.288-.376-.073-1.178.01-1.785.185-.88.253-.277.323 2.977.346 2.244.016 4.057-.08 4.029-.211-.028-.132.068-.515.213-.85.542-1.251-2.627-6.27-3.96-6.27m15.361.263c-.22-.013-.488.42-.785 1.338-.297.92-.539 1.957-.539 2.305s-.289.998-.64 1.445c-.734.932-.818 1.562-.24 1.795v.002c.22.089 1.263.163 2.32.166 1.458.004 1.748-.065 1.2-.285-.67-.27-.72-.484-.72-3.12 0-2.355-.23-3.623-.596-3.646" style="fill:#515151;stroke-width:.32" transform="matrix(.26458 0 0 .26458 -39.003 -127.353)"/><path d="M276.19 481.412c-18.755.058-44.477-.045-65.866.086-2.604 2.44-6.382 8.274-9.844 15.406-1.804 4.198-2.861 9.111-3.986 14.178-.73 3.47-1.137 9.138-.973 21.908-.442 6.229-.873 10.999-.994 16.473-.129 5.836.967 14.573 2.037 22.51.083 2.651.438 3.563 1.131 6.728 1.002 2.648 1.204 3.013 3.91 3.322 1.532.175 1.914.342 2.137.93.811.757 1.986 1.125 3.28 1.315 1.617-1.635 4.546-1.864 8.08-2.93 2.53-1.99 6.09-2.649 8.595-5.236 2.78-2.076 6.513-4.147 11.623-4.56 1.624-.659 10.601-.81 15.942-.269 2.203.224 3.947.222 5.6-.01 2.9-.4 5.76-.539 8.62-1.166 6.018.294 10.864-.41 16.03-.257 4.853 1.022 7.893 2.324 12.134 4.054 0 0 4.849 1.927 7.9 3.983 1.044 1.367.403 3.392.891 4.72 1.095 1.359 1.44 1.745 2.417 1.948 2.3.172 2.947-.047 4.584-2.489.778-.47.069 3.326-.096 5.211 0 7.365-2.288 9.875-6.248 6.854-1.487-1.135-1.692.07-2.631 2.853-2.38 1.925-4.97 3.48-6.803 6.008-2.473 2.672-4.375 3.893-6.867 6.686-2.026 1.326-2.72 2.468-2.795 3.611-.169 3.797.852 1.963.53 6-1.555 2.068-3.914 10.25-2.708 12.828 0 1.09-.416 1.152-1.847.28-1.556-.79-3.15-1.843-4.676-1.829-.592.124-1.323.533-2.115.713-1.296.295-1.442.42-1.442 1.244 0 .68-.2.992-.781 1.207-1.921.714 1.482 2.98 4.547 3.028 2.16.033 2.931.19 4.281.879 3.274 1.66 3.93 3 5.395 6.246.887.948 1.44 1.838 1.44 2.316 0 2.565 7.894 9.123 10.66 8.856 1.316-.609 13.145-18.053 16.22-22.446 1.776-2.497 4.804-3.932 6.418-6.074 2.13-2.354 3.38-1.197 1.873 1.733-.701 2.517-1.048 5.143-2.084 7.585-1.635 4.308-4.3 9.102-7.564 12.975-3.067 3.223-4.828 4.84-7.899 8.248-1.241.55-1.234.924.043 2.43 2.432 2.721 8.283 4.4 11.967 7.002.249.096.92.25 1.49.767 1.777 1.565.796-1.599.713-2.963 1.123-6.352 4.315-11.939 5.97-18.324 1.41-4.524 1.475-9.837 2.28-14.713.159-3.197.37-6.181 1.3-9.855.45-3.107 1.71-6.193 2.132-10.059.299-1.25 1.44-2.61.433-3.824-1.684-1.099-2.9-2.182-4.642-3.08-.797 0-1.773 2.861-2.037 5.328-.416 3.672-2.76 6.458-4.315 10.225-1.891 2.477-4.22 1.842-6.195 4.045-4.322 4.19-4.726 2.832-2.344-.141 2.24-2.45 3.996-5.99 5.81-8.42.767-1.281 1.886-2.71 3.088-4.041.074-3.033-2.728-.321-3.123.258a145 145 0 0 1-2.294 3.273c-2.291 3.156-3.815 5.424-4.374 6.51-.31.604-1.288 1.804-2.173 2.666-2.13 2.585-5.073 4.46-8.213 6.926-3.462 4.261-8.52 9.568-9.354 9.63-1.605-.87-2.866-1.303-5.754-3.794-1.836-1.837-1.883-2.26-.513-4.645 4.93-8.584 8.583-14.312 10.625-16.654 1.754-2.013 3.268-4.452 5.507-8.877 2.723-5.489 7.817-6.667 10.493-11.437.996-1.943 1.588-3.008 2.41-5.37 1.55-3.71-.411-12.06-2.235-9.863-1.231 1.484-1.269-.418-.064-3.297 1.758-4.201 2.394-7.187 2.432-11.42.031-3.517.033-3.517 1.13-3.875 1.744-.568 2.582-1.787 2.58-3.746-.001-2.33-2.188-8.98-3.62-11.02-1.436-2.041-2.406-3.954-2.95-5.808-1.717-5.708-3.513-11.24-5.822-16.834-2.677-7.01-5.507-13.356-8.537-20.756-.03-.136-2.93-5.738-4.766-8.42-2.805-4.191-5.215-6.354-7.281-8.424-3.076-2.491-3.632-3.688-7.854-5.056zm-17.864 95.461c-1.41.222-2.711.888-4.025 1.54-1.23.073-2.704.413-3.608.83-1.749.806-1.738.846 1.149 3.935 1.292 1.383 1.493 1.487 2.375 1.234 1.416-.406 1.957-1.361 1.957-1.986.304-.633-.125-1.627.257-2.197s1.827-.841 2.13-1.53c.633-.7.575-1.839-.235-1.826m-27.775 4.008c-.412.047-.668.297-.668.789s1.06.598 1.615.848c.491.22 1.553 1.016 2.207 1.314s1.238 1.359.916 1.547c0 0-.77.67-.951 1.148-.404 1.163 1.136.85 2.201.043.367-.222 1.416-.45 1.955-.773.629-.377.472-.947.479-1.512.002-.207.029-.695.183-1.04.416-.93-.155-.916-2.644-1.08-1.566-.105-3.217-.616-3.7-.862-.614-.314-1.181-.47-1.593-.422m105.263 28.156c-1.297-.023-1.455 1.875-1.45 3.377.004 1.83-.58 9.539-1.536 10.674-.226 1.418 1.523 4.942 1.332 7.195.396.29-.004 10.555.113 14.074.081 2.437.146 4.67.323 4.711 1.633.39 1.781-.872 1.724-4.414.553-6.6.854-13.285 1.803-19.61.328-3.834.874-8.417.412-12.524 0-1.812.294-2.952-2.092-3.35a1.9 1.9 0 0 0-.629-.133m-77.591 2.787a8 8 0 0 0-.641.004c-1.132.048-2.765.292-4.686.754-1.388.334-2.851.608-3.253.608s-1.14.34-1.637.755c-1.553 1.299-3.517 2.123-5.053 2.123-1.673 0-1.782.291-.654 1.715 1.264 1.597 1.634 1.88 3.43 2.637.93.392 1.711.725 1.734.74s.585-.198 1.25-.476a14 14 0 0 1 2.514-.729c1.195-.204.768-.69 1.298-2.361.351-1.105 1.149-1.842 1.588-2.127 1.582-.476 2.68-1.49 3.96-2.35 1.652-.792 1.482-1.245.15-1.293zm13.191 13.112c-1.079.03-2.086.204-2.836.591-1.634.322-2.412.31-3.457.069-.21-.07-1.037-.024-1.84.101-.803.126-1.86.153-2.35.059-.588-.113-1.096.018-1.505.389-.588.532-.73.532-2.893.002-2.867-.487-5.973-.044-8.342-.479-2.367 0-4.644 2.03-2.61 2.328.895.132 1.11.109 2.8-.277 1.763-.68 8.008-.372 9.705.355 1.831.839 1.9-.176 4.13-.164 1.367-.703 2.71-.84 2.93-.84 1.033.136 1.663-.202 2.342-.168 1.237-.38 2.053-.382 3.213-.394 3.448.48 3.24-1.225.713-1.572m-28.816 1.152c-.4-.014-.805.267-1.285.838-1.01 1.2-1.515.322-3.438.156-1.034-.09-1.318-.035-1.982.772-.983.748-1.222.74-2.42 1.726-.56.753-1.193 2.933.4 6.282 1.505 3.166.996 4.815.865 5.775-.335 2.472-1.194 3.493-3.797 4.515-.955.524-2.177.848-3.283-.181-1.105-1.03-1.839-1.623-2.363-2.063s-1.115-1.087-1.31-1.437c-.639-1.144-.724-.327-.235 2.23.63 3.296 1.104 7.44.824 9.967-.136 1.231-.478 2.143-1.547 2.766-1.086.632-4.446.29-5.87-1.582-1.703-2.238-2.028-2.912-2.026-.856 0 1.267-.08 1.973-.303 3.82-.405 4.252.108 7.973-.781 12.452-1.263 3.7-5.471 3.287-8.115-.8-.876-1.353-.372.554-1.428 2.774s-.863 3.208-4.238 3.135-4.855-1.679-6.149-3.555-1.68-3.28-2.724-5.176-1.482-3.412-3.247-5.695c-2.881-3.727-5.253-4.22-6.07-1.81-.612 1.804-.742 4.945-.898 6.783-.133 1.557-1.111 4.888-1.686 7.576-.776 1.773-1.243 5.768-2.896 9.535-3.505 2.584-6.783 1.28-8.551 4.096-2.525 4.022-6.177 11.583-9.348 16.484-1.153 2.533-4.32 7.461-8.976 16.104-2.555 1.82-1.996 2.336-2.125 7.127-.13 4.79-.153 14.517-.158 27.42-.005 12.83.076 23.553.181 23.826.298.777 5.46.483 9.082-2.414 8.653-8.899 18.266-18.639 25.22-26.905 5.098-8.035 6.347-13.79 10.62-24.285 3.84-7.738 11.154-19.247 17.81-26.191 10.212-7.69 18.938-12.124 25.118-24.899-1.477-2.7-1.164-10.302.64-15.58.646-1.887 1.012-3.647 1.082-5.214.147-3.256.36-4.085 1.704-6.604 1.167-2.188 1.167-2.19.328-2.88-.988-.815-1.67-2.015-1.397-2.458.352-.569 1.379-.327 2.008.473.833 1.058 2.208 1.68 2.678 1.21.605-.604.02-1.362-1.567-2.027-.838-.35-1.774-.777-2.08-.945-.305-.168-.746-.305-.978-.305-1.678 0-1.733-1.612-.076-2.236 1.038-.391 4.705 1.406 6.93 3.397.454.406.693.4 1.92-.053 5.82-2.149 5.756-2.134 8.6-1.945 1.497.099 3.134.277 3.641.394.704.163.89.11.787-.23-.197-.654-3.416-2.183-5.246-2.493-.87-.147-2.373-.645-3.341-1.107s-1.935-.842-2.149-.844c-1.213-.915-2.352-1.963-3.863-2.66-1.088-.217-1.785-2.992-.992-3.947.308-.372.255-.639-.26-1.33-.45-.604-.841-.912-1.24-.926m35.154 15.21c-1.848.043-4.078.405-4.639.913-1.252 1.133.449 1.273 3.588 2.484 1.37.529 2.568 1.575 4.553 2.112s3.091.546 3.084-.625c-.004-.549-2.469-3.552-4.117-4.577-.39-.242-1.36-.332-2.469-.306m83.387 1.743a.25.25 0 0 0-.12.002c-.15.036-.32.204-.498.537-.794 4.16-4.17 11.5-6.427 16.969-2.509 5.987-3.686 10.483-6.063 17.06-.515.152-.556 6.59-1.449 9.221-1.103 1.152-.9 1.893 1.13 4.09 2.195 2.373 2.618 2.037 2.487-1.98.439-3.12.428-7.903 1.557-11.592 1.365-5.034 2.848-10.221 4.834-15.49.037-.985 4.48-13.697 4.754-14.577.606-1.95.365-4.108-.205-4.24m-110.168 9.48c-.876.001-1.596.088-1.963.227-2.324.884-.293 1.522 3.226 2.129 2.682.462 5.47.416 5.47-.232 0-.576-1.839-1.44-3.829-1.84-.995-.2-2.028-.284-2.904-.284m131.191 2.26c-.278-.06-.653.306-1.04 1.12-1.3 1.267-2.535.294-3.302 2.26-2.753 5.056-4.956 9.81-8.638 15.189-.354.868-5.217 8.412-5.534 8.582-.767.41-.728 1.412.086 2.226.832.832 1.292.503 2.043-1.465.302-.79 5.184-8.064 5.34-8.064 3.567-3.733 3.14-4.836 4.094-6.682 0 0 2.046-3.476 2.93-5.392 1.571-2.531 1.974-3.448 3.078-4.887 1.055-.925 1.402 0 1.402-1.44 0-.898-.18-1.386-.459-1.447m-131.594 15.672c-.94-.06-2.31.412-4.51.412-4.19 0-4.557 1.065-4.048 1.889.259.42 5.104.195 7.685-.356 3.08-.657 3.113-.67 2.766-1.017-.23-.23-1.023-.727-1.516-.865a2 2 0 0 0-.377-.063m3.399 15.695a10.83 10.83 0 0 0-6.45 2.465c-1.672 1.401-1.47 1.072-2.208 2.41-.74 1.339-.223 2.13 1.632 2.233 1.436.686 4.975-2.454 7.114-5.348.356-.482.292-1.76-.088-1.76m124.656 6.543a4.5 4.5 0 0 0-.723.004c-1.815.026-3.446.124-4.043 1.457-1.525 1.834-2.76 2.865-4.187 4.647-1.444 1.72-5.254.906-5.885 1.266-.384.219 2.081 2.16 2.61 2.503 1.177.66 2.157 1.6 3.83 1.196 1.39-.953.87-3.009 1.978-3.696 1.681-1.044 3.66-2.72 5.617-4.738 1.972-1.472 2.244-2.514.803-2.638m-35.603 7.745q-.112.015-.249.068c-.925.355-8.54 37.372-8.79 40.248-.993 6.013-2.916 12.624-5.354 18.246-3.353 5.485-10 12.125-10 12.125.812 1.66 4.623-1.446 9.477-6.037 2.879-4.213 5.857-12 6.136-14.582.495-2.154 2.777-11.549 3.672-15.785 1.253-6.939 4.597-29.36 5.422-32.602.305-1.198.205-1.75-.314-1.681m39.287.18c-.1-.005-.233.034-.407.089-.396.127-1.188.304-1.761.393-.574.089-1.122.29-1.22.447-1.81.591-2.229.622-3.978 2.523-1.144 1.445-1.178 1.806-.263 2.78.382.407.774.74.869.74.652.377 1.212.577 2.264.863.998.272.144-1.201.714-1.953s2.064-1.111 2.508-1.346c1.587-.735 1.588-.735 1.588-2.707 0-1.425-.014-1.817-.314-1.83m-106.04 6.374a.7.7 0 0 0-.244.04c-.238.166 4.325 7.923 5.57 8.615 2.788 1.684 3.108 2.01 3.108 3.171 0 .518.178 1.227.397 1.577.756 1.21 1.843.239 1.843-1.649 0-3.094 1.509-3.813 5.28-2.515 1.023.352 2.305.641 2.85.642s1.544.154 2.22.342 1.293.279 1.371.201c.207-.207-2.312-3.02-4.506-3.416-2.213-.718-3.732-1.53-6.058-2.332 0 0-2.422-1.003-2.914-1.242-1.794-.87-7.411-3.453-8.916-3.434m25.481 11.918c-.411-.008-.469.242.076.844.412.455.554 1.04.489 2-.153 2.235-.026 3.935.482 6.502.16.804 2.093 1.916 2.836 1.63.428-.164.521-.602.476-2.228-.05-1.83.37-3.427.9-3.427.858 0 1.375 1.186 1.382 3.17.004 1.16.168 2.686.365 3.39.302 1.082.45 2.27.566 4.559.05.967.964.329 1.143-.8.105-.66.494-2.423.867-3.92 1.111-4.46.65-5.981-2.267-7.476a12 12 0 0 1-2.122-1.459c-1.672-1.504-4.288-2.767-5.193-2.785m-19.53.592c-.56-.062-.978.934-1.13 2.746-.122 1.45-.066 1.983.201 1.897.94-.306 1.92-4.092 1.178-4.551a.6.6 0 0 0-.248-.092m3.143 4.383a.2.2 0 0 0-.105.006c-.178.051-.395.302-.692.73-.792 1.146-.621 1.73.561 1.926 1.031.171 1.134.035.865-1.156-.22-.978-.391-1.458-.629-1.506zm31.453 5.902c-1.076-.09-1.616 1.455-1.806 3.338-.42 3.14-.896 6.206-1.35 9.229-.059 2.894-.723 6.294-.994 10.544.315 4.814-.494 6.655-.885 11.463-.777 3.312-.517 4.495-.517 5.31 0 1.014 2.987 1.91 5.623-.862 1.885-2.015 3.731-3.94 6.51-8.428.09 0 2.67-2.838 4.873-6.94 2.203-4.1 3.103-11.056 2.927-11.16-1.462-.861-3.468-2.674-4.752-3.781-2.122-1.744-4.458-3.58-7.068-6.504-1.075-1.512-1.915-2.155-2.56-2.209m-51.507 1.287q-.053-.008-.125.037c-.176.11-.312.658-.3 1.22.02.86.068.92.3.38.335-.782.377-1.603.125-1.637m41.45 7.557c-.568 0-.972 1.256-.616 1.92.458.856.85.807 1.086-.135.212-.846-.035-1.785-.47-1.785m-16 22.766c-.284.008-.685.23-1.38.673-1.323.844-1.422 1.236-.436 1.725 1.662.823 3.27-.328 2.49-1.783-.223-.417-.389-.624-.673-.615m-8.02 2.236q-.089-.013-.14.035c-.098.1.009.482.239.852.449.719.764.839 1.039.394.176-.285-.732-1.227-1.139-1.281m47.31 25.076c-.44.005.825 1.568 1.814 3.651 1.506 3.174 2.522 4.556 2.88 7.934.355 3.339.1 4.864-.807 7.528-.963 2.219-2.076 5.532-4.12 6.62-1.25.57-1.64.467-3.035-.793-1.696-1.532-1.393-1.492-.112 2.604 1.018 3.255 2.22 6.083 2.912 8.822.45 1.785.352 3.572-.234 4.22-.518.57-.742.544 25.884.53 27.434-.016 27.228-.21 27.228-.21v-9.802c-1.594-.792-2.605-1.465-4.916-3.106-11.319-7.161-16.309-10.224-27.682-16.49a1405 1405 0 0 0-19.812-11.508" style="fill:#333;stroke-width:.32" transform="matrix(.26458 0 0 .26458 -39.003 -127.353)"/></g><g style="display:inline"><path d="M263.727 700.652c-3.824.266-5.59 6.85-5.59 9.284 0 1.745 1.46 6.246 2.279 7.025.79.751.769 1.284-.04 1.027-.799-.253-.893 1.703-.192 4.012.71 2.343 1.269 9.348.884 11.115-.482 2.214-.673 5.025-.375 5.508.336.543 1.885-.587 1.674-1.22-.077-.231.184-.763.578-1.182.51-.543.835-1.51 1.131-3.358.422-2.636.827-3.515 1.62-3.515.535 0 .606 2.645.12 4.523l-.65 2.512c-.182.7-.615 1.426-.96 1.611-.347.185-.63.592-.63.904s-.21.846-.469 1.188c-.695.92-.59 2.458.309 4.492.44.995.8 2.026.8 2.291s.522.975 1.159 1.576c1.03.971 1.186 1.332 1.398 3.239.235 2.107 1.51 4.92 3.215 7.103.344.44.71 1.52.813 2.4.517 4.397 3.564 6.186 5.619 3.3.682-.96.683-.96 1.473-.108.457.493.99.775 1.263.67.26-.1.746-.182 1.08-.182.375 0 .855-.46 1.25-1.199.353-.66 1.093-1.704 1.645-2.32 1.003-1.12 1.002-1.12.814.14q-.311 2.1 1.139 2.1c.855 0 4.88-3.63 5.52-4.979.384-.809.698-1.07 1.224-1.015.592.062.726-.107.815-1.032.057-.608.38-1.493.718-1.968s.616-1.03.616-1.23c0-.202.22-.794.49-1.315.399-.772.416-1.08.095-1.664-.216-.395-.49-1.625-.609-2.735-.171-1.595-.43-2.28-1.232-3.279-1.212-1.507-.448-1.843 1.152-.508.498.415 1.368.992 1.936 1.283 1.278.656 2.371 3.705 1.709 4.766-.236.378-.268.747-.084.98 1.21 1.542.583 3.78-.987 3.526-1.223-.198-2.15.466-2.15 1.543 0 .356-.232 1.448-.516 2.424-.93 3.2-.071 5.813 1.56 4.744 1.106-.724 2.656.904 2.143 2.252-.343.902-.075 3.234.405 3.531.17.105.731-.12 1.248-.502.991-.733 1.88.307 1.88 2.201 0 .41.274.714.754.834 1.796.451 6.27 11.202 4.99 11.992-.345.214-.315.504.159 1.555.5 1.108.526 1.434.178 2.276-.462 1.115-.462 1.119.681 1.392.56.134.978.041 1.24-.275 1.109-1.336 2.228.174 3.645 4.92.282.944.514 2.182.514 2.752 0 1.469.615 3.05 1.187 3.05.415 0 .454-.396.264-2.683-.39-4.678.501-4.029 1.894 1.38.428 1.66 1.05 3.387 1.383 3.84 1.024 1.392 1.163 2.572.393 3.29-.38.353-.596.857-.502 1.16.22.706-.334 1.597-.729 1.172-.162-.175-.58-1.104-.931-2.065-1.06-2.897-2.04-1.732-1.555 1.848.594 4.387.601 5.028.072 5.467-.779.646-1.307.016-1.779-2.123a237 237 0 0 0-.992-4.23c-.321-1.313-.503-2.514-.406-2.67s.034-.596-.14-.975c-.704-1.548-1.317-4.049-1.66-6.77l-.529-4.232c-.185-1.49-.443-1.794-1.253-1.483-.683.262-1.86 2.882-1.8 4 .027.492-.154.922-.435 1.03-.265.101-.486.514-.494.916-.037 2.675-1.216 1.86-1.412-.977-.06-.865-.349-1.939-.64-2.385-.359-.547-.51-1.368-.464-2.523.039-.943-.096-2.025-.298-2.405-.218-.402-.29-1.267-.18-2.076.139-1.018-.033-2.065-.645-3.95-.718-2.217-.82-3.048-.76-6.081.06-2.952-.004-3.497-.4-3.404-3.912.92-4.026.903-5.74-.838-1.007-1.023-1.61-1.916-1.61-2.383 0-1.272-.866-2.17-2.093-2.17-.952 0-1.16-.148-1.567-1.119-1.264-3.026-5.51-.27-4.685 3.041.197.792.49 2.592.652 4 .473 4.128.684 5.32 1.326 7.475.334 1.12.69 3.497.79 5.28.1 1.785.375 3.82.613 4.524 1.477 7.284 3.79 20.146 5.332 26.713 1.09 1.33 1.115 1.838.24 4.672-.629 2.035-.639 2.24-.16 3.244.281.59.512 1.362.512 1.715s.287 1.203.638 1.89c.84 1.646 1.695 1.527-11.144 1.561-2.518.019-5.183.021-7.825.028 4.126.004 7.526.017 12.094.017 6.456 0 12.434-.004 18.041-.035-2.794-.027-3.367-.102-2.537-.34.607-.174 1.409-.258 1.785-.185.417.08.686-.033.686-.288 0-.23.188-.993.42-1.695.387-1.175.37-1.323-.23-1.847-1.067-.93-.655-2.97.599-2.97 1.332 0 4.5 5.019 3.959 6.27-.145.336-.24.718-.213.85.023.11-1.341.176-3.041.193 4.387-.03 8.56-.077 12.451-.166-.577-.233-.493-.863.24-1.795.352-.447.641-1.097.641-1.445s.242-1.386.54-2.305c.296-.918.565-1.353.784-1.338.366.023.596 1.29.596 3.647 0 2.635.05 2.85.72 3.12.017.005.015.008.03.015 1.397-.043 2.77-.09 4.101-.145.732-.285.904-.856.903-2.22-.001-1.844-1.971-9.222-3.686-13.8-1.806-4.822-1.44-5.395 1.182-1.845 1.3 1.76 2.34 2.286 3.4 1.719.721-.386 2.305-2.927 2.305-3.698 0-.28.431-1.319.959-2.308 1.753-3.286 1.064-7.998-2.258-15.42-2.054-4.59-2.053-4.59-4.603-6.16-1.403-.863-2.73-1.569-2.946-1.569s-1.056-.573-1.865-1.273c-1.951-1.689-3.733-2.694-6.195-3.492-1.116-.362-2.525-1.095-3.131-1.627-.606-.533-1.226-.967-1.375-.967-.657 0-1.963-2.293-2.135-3.744-.101-.845.102-2.127-.09-2.524.65-3.057 1.197-4.139 1.748-6.42.1-3.031.681-5.825.659-9.873.604-4.455 1.116-8.378 1.261-12.101.412-.819-1.072-3.198-1.955-3.537-.26-.1-.474-.554-.474-1.008 0-.47-.344-1.145-.8-1.566-.975-.904-.985-1.056-.11-1.764.69-.559.69-.559.109-2.772-.776-2.958-.988-3.088-1.23-.761-.248 2.362-.346 2.549-1.348 2.549-.481 0-.782.184-.782.48 0 .736-.565.578-1.877-.523-.657-.552-1.692-1.167-2.298-1.366-1.157-.38-1.19-.497-.762-2.636.299-1.494-.546-2.954-3.422-5.916-2.42-2.493-3.146-3.685-2.691-4.42.707-1.145 2.73.599 2.73 2.353 0 1.343.802 2.428 1.793 2.428.793 0 2.127 1.059 2.438 1.937.378 1.068.453.01.115-1.617-.675-3.245-3.753-6.476-5.688-5.97-.436.114-1.521-.228-2.935-.924-3.449-1.7-4.682-1.308-4.682 1.488q.001 1.6-.709 2.832c-.654 1.137-.68 1.365-.32 2.943.214.941.6 3.27.857 5.174.295 2.186.765 4.116 1.276 5.23.772 1.687 1.693 5.735 1.377 6.051-.29.29-1.178-.25-1.362-.828-.393-1.239-1.473-2.236-2.422-2.236-.515 0-.937-.166-.937-.37 0-.202-.382-1.174-.848-2.16-1.182-2.498-1.372-4.371-.47-4.658 1.372-.435 1.632-2.091.328-2.091-.348 0-1.055-.433-1.57-.961-.548-.56-1.272-.96-1.739-.96-1.136 0-1.546-.93-1.154-2.626.174-.755.322-1.998.326-2.762.006-1.137.18-1.542.967-2.232 1.325-1.164 1.224-1.832-.4-2.659-.749-.38-.974-.825-1.798-1.636-1.974-1.944-3.07-5.714-4.25-7.313-1.683-2.6-6.509-5.83-11.002-6.588m-.245 1.502v.002a.8.8 0 0 1 .38.03c1.966.655 2.486.807 4.57 2.064 1.038.626 4.129 3.078 4.908 4.104.97 1.278 2.395 4.022 2.748 4.593.29.954.63 1.41.933 2.42.563 1.272.303 1.446 1.834 1.82 1.18.29 1.809.846.936 1.335-.306.17-.53.694-.53 1.24 0 1.035-.345 1.205-.956.469-.539-.65-.909-.347-1.631 1.337-.84 1.96-.854 3.297-.028 2.55 1.063-.962 1.195-.838 2.579 2.433.526 1.244.827 1.562 1.638 1.724.99.198.993.203.793 1.834-.152 1.245-.051 1.983.42 3.079.658 1.53 1.6 7.85 1.227 8.224-.122.122-.671-.044-1.221-.369-1.77-1.046-2.543.882-1.06 2.645.44.522.798 1.099.798 1.279s.316 1.022.701 1.873c.51 1.126.731 2.33.811 4.428.312 8.177.27 8.522-1.1 9.181-.562.27-.937.765-1.068 1.407-.11.543-.305 1.154-.432 1.359-.624 1.01-2.431.159-2.431-1.145 0-.411-.295-1.327-.657-2.035-1.2-2.352-1.839-5.162-2.029-8.928-.282-5.594-1.161-11.655-1.781-12.275-.471-.471-.759 1.25-.531 3.184.143 1.223.06 2.078-.28 2.892-.265.636-.486 1.752-.492 2.479-.02 2.647-3.326 4.315-4.625 2.334-.532-.812-.571-.653 1.604-6.453.462-1.232.913-2.474 1.002-2.758.191-.614-1.329-1.925-1.953-1.686-.232.09-.516.873-.631 1.742-.223 1.678-1.564 2.71-3.213 2.473-1.147-.165-.613-2.809.957-4.732.215-.265.468-.912.562-1.44.636-3.555 1.244-5.244 1.928-5.342.76-.108 1.048-1.057.719-2.37-.256-1.02-.755-.972-1.188.113-.351.88-.351.88-.802-.184-.405-.954-.549-1.043-1.4-.855-.823.18-.95.117-.95-.477 0-1.496.37-1.768 5.035-3.697 1.46-.604 2.965-4.138 2.965-6.961 0-.995-1.648-3.108-2.424-3.108-.531 0-2.6 1.335-2.94 1.895-.8 1.325-2.136.681-2.515-1.211-.315-1.575-1.706-1.602-2.201-.043-.5 1.575-2.72-.598-2.72-2.662 0-.449-.147-1.202-.327-1.674-.449-1.18 2.125-7.848 4.068-8.137m.397 8.666a.2.2 0 0 0-.172.057c-.117.117-.032.648.19 1.182.442 1.07.88 1.24 1.18.462.182-.477-.726-1.656-1.198-1.7m25.408 5.764q.14-.016.307.012c.295.048.652.197 1.084.433 1.206.66 1.39.898 2.02 2.602.203.552 1.38 2.065 2.615 3.361 3.83 4.022 4.853 5.77 3.64 6.237-.258.098-.893-.122-1.41-.49-2.066-1.472-2.715-.815-1.482 1.501.44.827.803 1.793.806 2.147.013 1.351.862 3.866 1.108 3.28.977-2.33 4.966 1.707 4.966 5.026 0 1.723 1.48 3.178 2.43 2.389.961-.798 2.958.246 3.365 1.758.423 1.57-.082 7.953-.687 8.681-.794.957-3.508-.089-3.508-1.351 0-.834-.808-1.759-2.143-2.453-1.159-.603-2.202-1.757-2.5-2.768-.352-1.194-.69-1.504-2.67-2.435-.993-.468-2.254-1.228-2.8-1.688s-1.411-1.063-1.922-1.338c-.97-.522-1.742-2.507-2.229-5.726-.118-.785-.504-1.82-.859-2.3s-.777-1.636-.938-2.571c-.589-3.44-.873-4.94-1.246-6.588-.343-1.52-.321-1.753.223-2.354.413-.455.654-1.327.764-2.76.132-1.732.406-2.53 1.066-2.605m-18.72 2.877c.387.083.429.819-.151 1.822-.655 1.133-1.884 1.708-2.447 1.145-.413-.413-.238-1.098.332-1.301.308-.11.873-.573 1.256-1.03.42-.5.777-.686 1.01-.636m-6.87.684q.091.013.176.064c.191.118.348.422.348.676 0 .539-.823.62-1.137.113-.244-.395.196-.916.613-.854m-1.84 1.845c.815.002 2.686 1.17 2.68 1.674-.006.547-.867 2.986-1.455 4.123-.902 1.744-1.202 1.12-1.607-3.35-.206-2.265-.177-2.448.382-2.447m36.592 8.957h.002c.384.002.392.539.022 1.44-.242.587-.283.594-.492.08-.269-.657-.002-1.517.468-1.52m-35.338.002c.5 0 .584 1.124.19 2.535-.405 1.45-1.32 1.193-1.32-.37 0-1.17.52-2.165 1.13-2.165m37.895 2.49c1.15-.033 3.855 2.309 3.855 3.336 0 .316-.108.562-.24.547-.675-.076-3.156-1.398-3.396-1.81-.152-.261-.56-.759-.907-1.106-.759-.759-.638-.929.688-.966m5.996 3.96c.925-.018 1.433 1.14 1.146 3.132-.29 2.024-.514 2.16-2.007 1.223-1.953-1.224-2.117-2.163-.623-3.572.556-.526 1.064-.776 1.484-.784m-6.545.595c-.584-.008-.346 3.468.264 3.854.675.427 1.9.363 1.894-.1-.021-1.75-1.166-3.742-2.158-3.754m-13.121 2.389c.667-.023 2.166 2.218 2.166 3.346 0 1.017-.543.79-1.6-.668-.954-1.317-1.213-2.318-.687-2.643a.23.23 0 0 1 .12-.035m3.676 4.363c.265-.034.527.125.867.465.695.695.632 1.124-.31 2.14-1.6 1.725-2.97-.095-1.446-1.921.355-.426.624-.651.889-.684m-5.83 3.162c.658 0 .906.605.466 1.135-.492.593-.919.592-1.146 0-.225-.587.104-1.135.68-1.135m3.98 3.256c.214-.012.513.213 1.076.664.813.65.877.846.68 2.078-.26 1.622-.74 1.718-1.87.375-.942-1.12-.966-1.24-.456-2.36.226-.495.356-.746.57-.757m-16.402.77c.63.022 1.119 1.535 1.681 4.775 1.087 6.255 1.06 5.91.518 6.738-1.18 1.802-2.722.612-3.352-2.586-.27-1.373-.73-2.58-1.193-3.136-.89-1.07-.978-2.3-.193-2.735.308-.17.848-.86 1.2-1.535.53-1.01.96-1.534 1.339-1.521m12.363.187q.203 0 .477.088c1.474.468 4.182 4.587 3.341 5.084-1.088.644-2.97.553-3.238-.156-1.341-3.55-1.53-5.015-.58-5.016m23.4 3.274c.368.03.724.934.905 2.351.21 1.656-.106 1.745-.828.23-.602-1.261-.693-2.255-.235-2.538a.27.27 0 0 1 .158-.043m-9.726 5.675c.272.035.625.333.625.616 0 .408-.554.38-.815-.041-.116-.188-.132-.418-.039-.512.058-.059.138-.074.229-.063m7.625 1.88c.72 0 1.457.797 1.168 1.265-.268.433-.523.409-1.21-.111-.735-.559-.713-1.155.042-1.155m-.422 3.964c.106.006.257.106.432.316.262.316.275.525.043.668-.186.115-.427-.022-.536-.304-.168-.44-.116-.691.061-.68m-17.713 6.934q.062.001.115.054c.12.119.125.583.012 1.032-.231.922-.836 1.109-.828.255.006-.635.413-1.357.701-1.341m2.201 1.9c1.237 0 1.507 2.919.389 4.209-.6.694-.071 1.027 1.191.75 1.516-.333 1.368 1.918-.35 5.287-.715 1.405-1.432 2.555-1.591 2.555-.586 0-1.241-1.83-1.059-2.955.1-.617.012-1.436-.197-1.826-.208-.39-.424-1.309-.478-2.043-.055-.735-.2-1.719-.323-2.186-.184-.7-.12-.84.364-.799.449.038.612-.214.693-1.07.125-1.321.55-1.922 1.361-1.922m8.66.64c.454 0 .683.877.461 1.76v.002c-.241.962-.691 1.039-.921.159-.207-.79.065-1.92.46-1.92m17.584 4.868c.694.034 1.88.662 3.153 1.986.63.655 1.865 1.432 2.879 1.809 3.431 1.275 4.618 2.36 6.273 5.738 3.861 7.88 4.652 12.534 2.783 16.379-.572 1.177-1.039 2.286-1.039 2.463 0 .428-1.322 2.694-1.746 2.992-.975.686-1.833.027-4.252-3.273-.71-.968-1.82-2.265-2.465-2.881-1.263-1.206-3.845-6.266-4.214-8.26-.22-1.18-.219-1.181 1.345.256 2.337 2.146 1.764-.949-.715-3.86-.34-.398-1.713-3.884-1.713-4.347 0-.946 1.468.652 2.836 3.09.698 1.241 3.137 3.734 3.399 3.472.27-.27-1.07-3.85-1.926-5.144-.434-.657-.792-1.376-.795-1.6s-.433-1.128-.955-2.008-.95-1.87-.953-2.203-.581-1.23-1.285-1.994c-1.582-1.716-1.502-2.658-.61-2.615m-16.81.846a.24.24 0 0 1 .14.002.5.5 0 0 1 .178.117c.105.104.14.597.082 1.097-.106.91-.106.911-.533.157-.313-.553-.172-1.283.133-1.373m7.582 16.636c.887-.166 1.094 2.6.183 4.93-.378.97-1.443 1.202-1.757.383-.217-.566.705-4.604 1.154-5.053.153-.153.293-.236.42-.26m10.142 12.85c.44 0 .807.703 1.575 3.017 1.373 4.14 1.274 6.407-.215 4.918-.211-.21-.385-.793-.385-1.293 0-.953-.953-3.07-1.965-4.365-1.05-1.343-.643-2.277.99-2.277m4.979.447c.25-.044.526.1.809.45 1.236 1.526 4.25 12.25 4.086 14.535-.1 1.368-.099 1.37-1.727 1.464-2.103.123-2.42-.271-2.598-3.22-.092-1.546-.462-3.152-1.113-4.834-1.002-2.59-1.014-2.818-.387-6.67.172-1.053.514-1.651.93-1.725m-18.018 7.922q.129-.015.301.008c.841.125 1.515 1.076 1.067 1.504-.195.186-.585.115-1.034-.19-.815-.553-.933-1.248-.334-1.322zm10.577 4.582c.273.019.556.648.556 1.316 0 .25-.214.454-.478.454-.524 0-.684-1.436-.194-1.739a.2.2 0 0 1 .116-.03" style="display:inline;fill:#000;stroke-width:.32" transform="matrix(.26458 0 0 .26458 -39.003 -127.353)"/></g><g style="display:inline"><path d="M73.096 187.058a.2.2 0 0 0-.065.01c-.063.044 1.144 2.097 1.474 2.28.738.445.822.532.822.839 0 .137.047.324.105.417.2.32.488.063.488-.436 0-.819.399-1.01 1.397-.666.27.093.61.17.754.17s.408.04.587.09c.18.05.342.074.363.054.055-.055-.612-.8-1.192-.904-.586-.19-.988-.405-1.603-.617 0 0-.64-.265-.771-.329-.475-.23-1.96-.913-2.36-.908zm6.742 3.153c-.11-.002-.124.064.02.223.109.12.146.275.129.53-.04.591-.007 1.04.127 1.72.043.213.554.507.75.431.114-.043.139-.159.127-.59-.013-.483.098-.906.238-.906.227 0 .364.314.366.839 0 .307.044.71.096.897.08.286.12.6.15 1.206.013.256.255.087.302-.212.028-.174.131-.64.23-1.037.294-1.18.172-1.583-.6-1.978a3.2 3.2 0 0 1-.561-.386c-.443-.398-1.135-.732-1.374-.737m-5.168.157c-.148-.017-.259.247-.299.726-.032.384-.017.525.053.502.25-.08.508-1.083.312-1.204a.2.2 0 0 0-.066-.024m.832 1.16a.1.1 0 0 0-.028.001c-.047.014-.105.08-.183.194-.21.303-.164.457.148.51.273.044.3.008.23-.307-.06-.258-.104-.386-.167-.398zm-5.306 1.902a.05.05 0 0 0-.033.01c-.047.028-.083.173-.08.322.006.228.018.244.08.1.088-.206.1-.423.033-.432zm10.967 1.999c-.15 0-.257.332-.163.508.12.226.224.213.287-.036.056-.224-.01-.472-.124-.472m-4.233 6.023c-.076.002-.182.061-.366.179-.35.223-.376.327-.115.456.44.218.865-.087.659-.472-.06-.11-.103-.165-.178-.163m-2.123.592q-.023-.004-.036.009c-.027.026.002.128.063.225.118.19.202.222.275.105.046-.076-.194-.325-.302-.34z" style="display:inline;fill:#000;stroke-width:.0846667" transform="translate(-39.003 -127.353)"/></g></svg>